G04 Layer_Physical_Order=1*
G04 Layer_Color=255*
%FSLAX43Y43*%
%MOMM*%
G71*
G01*
G75*
%ADD10R,1.350X1.100*%
%ADD11R,1.450X1.050*%
%ADD12O,2.300X0.600*%
%ADD13R,2.100X2.150*%
%ADD14R,1.100X1.350*%
%ADD15R,1.550X2.000*%
%ADD16C,0.750*%
%ADD17C,0.500*%
%ADD18C,1.000*%
%ADD19R,2.500X2.300*%
%ADD20C,2.000*%
%ADD21C,3.000*%
%ADD22C,1.600*%
%ADD23O,2.000X1.600*%
G04:AMPARAMS|DCode=24|XSize=1.6mm|YSize=2mm|CornerRadius=0.4mm|HoleSize=0mm|Usage=FLASHONLY|Rotation=270.000|XOffset=0mm|YOffset=0mm|HoleType=Round|Shape=RoundedRectangle|*
%AMROUNDEDRECTD24*
21,1,1.600,1.200,0,0,270.0*
21,1,0.800,2.000,0,0,270.0*
1,1,0.800,-0.600,-0.400*
1,1,0.800,-0.600,0.400*
1,1,0.800,0.600,0.400*
1,1,0.800,0.600,-0.400*
%
%ADD24ROUNDEDRECTD24*%
G04:AMPARAMS|DCode=25|XSize=2mm|YSize=2mm|CornerRadius=0.5mm|HoleSize=0mm|Usage=FLASHONLY|Rotation=0.000|XOffset=0mm|YOffset=0mm|HoleType=Round|Shape=RoundedRectangle|*
%AMROUNDEDRECTD25*
21,1,2.000,1.000,0,0,0.0*
21,1,1.000,2.000,0,0,0.0*
1,1,1.000,0.500,-0.500*
1,1,1.000,-0.500,-0.500*
1,1,1.000,-0.500,0.500*
1,1,1.000,0.500,0.500*
%
%ADD25ROUNDEDRECTD25*%
%ADD26C,1.800*%
G04:AMPARAMS|DCode=27|XSize=2mm|YSize=2mm|CornerRadius=0.5mm|HoleSize=0mm|Usage=FLASHONLY|Rotation=270.000|XOffset=0mm|YOffset=0mm|HoleType=Round|Shape=RoundedRectangle|*
%AMROUNDEDRECTD27*
21,1,2.000,1.000,0,0,270.0*
21,1,1.000,2.000,0,0,270.0*
1,1,1.000,-0.500,-0.500*
1,1,1.000,-0.500,0.500*
1,1,1.000,0.500,0.500*
1,1,1.000,0.500,-0.500*
%
%ADD27ROUNDEDRECTD27*%
%ADD28C,1.700*%
G04:AMPARAMS|DCode=29|XSize=1.6mm|YSize=1.6mm|CornerRadius=0.4mm|HoleSize=0mm|Usage=FLASHONLY|Rotation=180.000|XOffset=0mm|YOffset=0mm|HoleType=Round|Shape=RoundedRectangle|*
%AMROUNDEDRECTD29*
21,1,1.600,0.800,0,0,180.0*
21,1,0.800,1.600,0,0,180.0*
1,1,0.800,-0.400,0.400*
1,1,0.800,0.400,0.400*
1,1,0.800,0.400,-0.400*
1,1,0.800,-0.400,-0.400*
%
%ADD29ROUNDEDRECTD29*%
G04:AMPARAMS|DCode=30|XSize=1.8mm|YSize=1.8mm|CornerRadius=0.45mm|HoleSize=0mm|Usage=FLASHONLY|Rotation=0.000|XOffset=0mm|YOffset=0mm|HoleType=Round|Shape=RoundedRectangle|*
%AMROUNDEDRECTD30*
21,1,1.800,0.900,0,0,0.0*
21,1,0.900,1.800,0,0,0.0*
1,1,0.900,0.450,-0.450*
1,1,0.900,-0.450,-0.450*
1,1,0.900,-0.450,0.450*
1,1,0.900,0.450,0.450*
%
%ADD30ROUNDEDRECTD30*%
%ADD31C,1.270*%
G36*
X79019Y53400D02*
D01*
X79019Y53400D01*
X79019Y53400D01*
Y53025D01*
X78663Y52877D01*
X78424Y52300D01*
Y51300D01*
X78663Y50723D01*
X79059Y50559D01*
Y46510D01*
X78643Y46232D01*
X78190Y46420D01*
Y44900D01*
X77690D01*
Y46420D01*
X76792Y46048D01*
X76763Y45977D01*
X76477D01*
X76477Y45977D01*
Y45977D01*
X75900Y46216D01*
X74900D01*
Y46900D01*
X75000Y47000D01*
X74521D01*
X74280Y47580D01*
X73600Y47862D01*
X72920Y47580D01*
X72864Y47446D01*
X70800D01*
X70414Y47286D01*
X70129Y47000D01*
X59000D01*
Y51019D01*
X61500D01*
X61500Y51019D01*
X61981Y51219D01*
X62781Y52019D01*
X62781Y52019D01*
X62840Y52160D01*
X62981Y52500D01*
X62981Y52500D01*
Y57518D01*
X63082Y57619D01*
X79019D01*
Y53400D01*
D02*
G37*
G36*
X70000Y42200D02*
Y37000D01*
X70000D01*
X70500Y36500D01*
X70654D01*
Y36000D01*
X70814Y35614D01*
X71294Y35134D01*
X71680Y34974D01*
X74269D01*
X74440Y34560D01*
X75400Y34163D01*
X76360Y34560D01*
X76360D01*
D01*
X76792Y34372D01*
X76792Y34372D01*
X76792Y34372D01*
X77713Y33990D01*
X77616Y33500D01*
X65706D01*
X65428Y33916D01*
X65525Y34150D01*
X63275D01*
X63372Y33916D01*
X63094Y33500D01*
X56901D01*
X56624Y33916D01*
X56804Y34350D01*
X55500D01*
Y34850D01*
X56804D01*
X56600Y35341D01*
Y37041D01*
X56641Y37140D01*
X56600Y37239D01*
Y37875D01*
X56875D01*
Y37875D01*
X57850D01*
Y38900D01*
X58100D01*
Y39150D01*
X59325D01*
Y39525D01*
X59500Y39700D01*
Y42000D01*
X60000Y42500D01*
X61504D01*
X61771Y42100D01*
X61771Y42100D01*
X61771D01*
X62131Y41231D01*
X62750Y40975D01*
Y42100D01*
X63250D01*
Y40975D01*
X63869Y41231D01*
X64229Y42100D01*
X64229Y42100D01*
X64229Y42100D01*
X64450Y42431D01*
X64950D01*
X65171Y42100D01*
X65171Y42100D01*
X65171D01*
X65531Y41231D01*
X66150Y40975D01*
Y42100D01*
X66650D01*
Y40975D01*
X67269Y41231D01*
X67629Y42100D01*
X67629Y42100D01*
X67629Y42100D01*
X67896Y42500D01*
X69700D01*
X70000Y42200D01*
D02*
G37*
G36*
X88715Y64612D02*
X88364Y64256D01*
X85011D01*
X84983Y64323D01*
X84100Y64689D01*
X83217Y64323D01*
X82851Y63440D01*
X83217Y62557D01*
X84100Y62191D01*
X84983Y62557D01*
X85011Y62624D01*
X88739D01*
X88760Y60957D01*
X88725Y60922D01*
X88725D01*
Y59672D01*
X90000D01*
Y59422D01*
X90250D01*
Y57922D01*
X91275D01*
Y59472D01*
X91737Y59663D01*
X92500Y58900D01*
X93800D01*
X93900Y59000D01*
Y59000D01*
X94400Y59500D01*
Y61000D01*
X94500D01*
X95000Y61500D01*
X98900D01*
X99900Y60500D01*
Y58100D01*
X99929Y58071D01*
X99900Y58000D01*
X99900D01*
X99900Y58000D01*
X98826Y56926D01*
X98410Y57204D01*
X98620Y57710D01*
X97350D01*
Y56440D01*
X97856Y56650D01*
X98134Y56234D01*
X96900Y55000D01*
X89581D01*
X89304Y55416D01*
X89525Y55950D01*
X87275D01*
X87531Y55331D01*
X87681Y55269D01*
X87779Y54779D01*
X87500Y54500D01*
Y40900D01*
Y34500D01*
X86500Y33500D01*
X84277D01*
X83999Y33916D01*
X84357Y34780D01*
X83960Y35740D01*
X83000Y36137D01*
X82040Y35740D01*
X81643Y34780D01*
X82001Y33916D01*
X81723Y33500D01*
X78264D01*
X78167Y33990D01*
X79088Y34372D01*
X79460Y35270D01*
X77940D01*
Y35770D01*
X79460D01*
X79289Y36184D01*
X79500Y36500D01*
X79500D01*
Y41400D01*
Y41500D01*
X80000Y42000D01*
X81808D01*
X82040Y41440D01*
X83000Y41043D01*
X83839Y41390D01*
D01*
X83960Y41440D01*
X84357Y42400D01*
X83960Y43360D01*
X83000Y43757D01*
X83000Y43757D01*
Y43757D01*
X82681Y44528D01*
Y44730D01*
X83140Y44920D01*
X84100Y44523D01*
X85060Y44920D01*
X85457Y45880D01*
X85060Y46840D01*
X84100Y47237D01*
X83140Y46840D01*
X82681Y47030D01*
Y52350D01*
X83140Y52540D01*
D01*
D01*
X84100Y52143D01*
X85060Y52540D01*
X85457Y53500D01*
X85060Y54460D01*
X84100Y54857D01*
X83140Y54460D01*
X83025Y54181D01*
X80500D01*
Y57500D01*
Y57679D01*
X83133D01*
X83217Y57477D01*
X84100Y57111D01*
X84983Y57477D01*
X85349Y58360D01*
X84983Y59243D01*
X84823Y59310D01*
X84100Y59609D01*
X83217Y59243D01*
X83133Y59041D01*
X79760D01*
X79760Y59041D01*
X79615Y58981D01*
X77481D01*
Y62333D01*
X77701Y62424D01*
X77908Y62925D01*
Y63725D01*
X77701Y64226D01*
X77200Y64433D01*
X76400D01*
X75899Y64226D01*
X75847Y64098D01*
X75347D01*
X75255Y64320D01*
X74510Y64629D01*
Y63325D01*
Y62021D01*
X75255Y62330D01*
X75347Y62552D01*
X75847D01*
X75899Y62424D01*
X76119Y62333D01*
Y58981D01*
X62800D01*
X62800Y58981D01*
X62319Y58781D01*
X61819Y58281D01*
X61619Y57800D01*
X61619Y57800D01*
X61619D01*
X61419Y57700D01*
X60971D01*
X60790Y57882D01*
Y57900D01*
X58200Y60600D01*
Y61121D01*
X58679D01*
Y62679D01*
D01*
Y62679D01*
X58875Y62875D01*
X58925D01*
Y63650D01*
X57700D01*
Y64150D01*
X58925D01*
Y64419D01*
X62402D01*
X62804Y64000D01*
Y63000D01*
Y63000D01*
X63284Y62500D01*
X63338D01*
X64100Y62184D01*
X64907Y62518D01*
X65120Y63033D01*
X65620D01*
X65833Y62518D01*
X66640Y62184D01*
X67447Y62518D01*
X67660Y63033D01*
X68160D01*
X68373Y62518D01*
X69180Y62184D01*
X69987Y62518D01*
X70321Y63325D01*
X69987Y64132D01*
X69180Y64466D01*
X68373Y64132D01*
X68160Y63617D01*
X67660D01*
X67447Y64132D01*
X66640Y64466D01*
X65833Y64132D01*
X65620Y63617D01*
X65120D01*
X64907Y64132D01*
X64781Y64184D01*
Y64800D01*
X64781Y64800D01*
X64734Y64912D01*
X64819Y65000D01*
Y65100D01*
X65203Y65500D01*
X88704D01*
X88715Y64612D01*
D02*
G37*
%LPC*%
G36*
X74410Y51550D02*
X73140D01*
X73512Y50652D01*
X74410Y50280D01*
Y51550D01*
D02*
G37*
G36*
Y53320D02*
X73512Y52948D01*
X73140Y52050D01*
X74410D01*
Y53320D01*
D02*
G37*
G36*
X76180Y51550D02*
X74910D01*
Y50280D01*
X75808Y50652D01*
X76180Y51550D01*
D02*
G37*
G36*
X68300Y50549D02*
X67417Y50183D01*
X67051Y49300D01*
X67417Y48417D01*
X68300Y48051D01*
X69183Y48417D01*
X69549Y49300D01*
X69183Y50183D01*
X68300Y50549D01*
D02*
G37*
G36*
X63220D02*
X62337Y50183D01*
X61971Y49300D01*
X62337Y48417D01*
X63220Y48051D01*
X64103Y48417D01*
X64469Y49300D01*
X64103Y50183D01*
X63220Y50549D01*
D02*
G37*
G36*
X68270Y55949D02*
X67387Y55583D01*
X67325Y55433D01*
X66825D01*
X66719Y55689D01*
X66180Y55912D01*
X65280D01*
X64741Y55689D01*
X64518Y55150D01*
Y54250D01*
X64741Y53711D01*
X65280Y53488D01*
X66180D01*
X66719Y53711D01*
X66825Y53967D01*
X67325D01*
X67387Y53817D01*
X68270Y53451D01*
X69153Y53817D01*
X69519Y54700D01*
X69153Y55583D01*
X68270Y55949D01*
D02*
G37*
G36*
X74910Y53320D02*
Y52050D01*
X76180D01*
X75808Y52948D01*
X74910Y53320D01*
D02*
G37*
G36*
X64650Y35525D02*
Y34650D01*
X65525D01*
X65269Y35269D01*
X64650Y35525D01*
D02*
G37*
G36*
X64150D02*
X63531Y35269D01*
X63275Y34650D01*
X64150D01*
Y35525D01*
D02*
G37*
G36*
X59325Y38650D02*
X58350D01*
Y37875D01*
X59325D01*
Y38650D01*
D02*
G37*
G36*
X96850Y59480D02*
X95952Y59108D01*
X95580Y58210D01*
X96850D01*
Y59480D01*
D02*
G37*
G36*
X89750Y59172D02*
X88725D01*
Y57922D01*
Y57922D01*
X89750D01*
Y59172D01*
D02*
G37*
G36*
X97350Y59480D02*
Y58210D01*
X98620D01*
X98248Y59108D01*
X97350Y59480D01*
D02*
G37*
G36*
X74010Y64629D02*
X73265Y64320D01*
X72956Y63575D01*
X74010D01*
Y64629D01*
D02*
G37*
G36*
Y63075D02*
X72956D01*
X73265Y62330D01*
X74010Y62021D01*
Y63075D01*
D02*
G37*
G36*
X96850Y57710D02*
X95580D01*
X95952Y56812D01*
X96850Y56440D01*
Y57710D01*
D02*
G37*
G36*
X88650Y57325D02*
Y56450D01*
X89525D01*
X89269Y57069D01*
X88650Y57325D01*
D02*
G37*
G36*
X88150D02*
X87531Y57069D01*
X87275Y56450D01*
X88150D01*
Y57325D01*
D02*
G37*
%LPD*%
D10*
X49400Y36000D02*
D03*
Y38000D02*
D03*
X49400Y41100D02*
D03*
Y43100D02*
D03*
X49400Y46200D02*
D03*
Y48200D02*
D03*
D11*
X47400Y41100D02*
D03*
Y43100D02*
D03*
X58100Y40900D02*
D03*
Y38900D02*
D03*
X47400Y36000D02*
D03*
Y38000D02*
D03*
Y46200D02*
D03*
Y48200D02*
D03*
X41800Y56800D02*
D03*
Y54800D02*
D03*
X57700Y61900D02*
D03*
Y63900D02*
D03*
D12*
X45225Y63545D02*
D03*
Y62275D02*
D03*
Y61005D02*
D03*
Y59735D02*
D03*
Y58465D02*
D03*
Y57195D02*
D03*
Y55925D02*
D03*
Y54655D02*
D03*
X54375Y63545D02*
D03*
Y62275D02*
D03*
Y61005D02*
D03*
Y59735D02*
D03*
Y58465D02*
D03*
Y57195D02*
D03*
Y55925D02*
D03*
Y54655D02*
D03*
D13*
X41325Y37000D02*
D03*
X45075D02*
D03*
X41325Y42100D02*
D03*
X45075D02*
D03*
X41325Y47200D02*
D03*
X45075D02*
D03*
D14*
X51300Y37100D02*
D03*
X53300D02*
D03*
X51300Y42200D02*
D03*
X53300D02*
D03*
X51300Y39700D02*
D03*
X53300D02*
D03*
D15*
X90000Y62978D02*
D03*
Y59422D02*
D03*
D16*
X76800Y58300D02*
X79700D01*
X62800D02*
X76800D01*
X62300Y52500D02*
Y57800D01*
X62800Y58300D01*
X82000Y53500D02*
X84100D01*
X79800D02*
X82000D01*
Y43400D02*
X83000Y42400D01*
X82000Y43400D02*
Y53500D01*
X79700Y53400D02*
Y58300D01*
Y51840D02*
Y53400D01*
X79800Y53500D01*
X79700Y58300D02*
X79760Y58360D01*
X84100D01*
X79700Y51840D02*
X79740Y51800D01*
X58100Y33891D02*
X77591D01*
X56209D02*
X58100D01*
Y38900D01*
X55500Y34600D02*
X56209Y33891D01*
X77591D02*
X77940Y34240D01*
Y35520D01*
X78000Y42600D02*
X79700D01*
X72900D02*
X78000D01*
X77940Y42540D02*
X78000Y42600D01*
X77940Y40600D02*
Y42540D01*
X72500Y36900D02*
X72600Y37000D01*
Y42300D01*
X72900Y42600D01*
X79700D02*
X79740Y42640D01*
Y51800D01*
X76800Y58300D02*
Y63325D01*
X61500Y51700D02*
X62300Y52500D01*
X56180Y51700D02*
X61500D01*
X55500Y52380D02*
X56180Y51700D01*
X51900Y34600D02*
X55500D01*
X51300Y35200D02*
X51900Y34600D01*
X51300Y35200D02*
Y37100D01*
Y39700D01*
Y42200D01*
X64100Y63325D02*
Y64800D01*
X63800Y65100D02*
X64100Y64800D01*
X38500Y64400D02*
X39200Y65100D01*
X38500Y55100D02*
Y64400D01*
Y55100D02*
X38800Y54800D01*
X41800D01*
X39200Y65100D02*
X43200D01*
X63800D01*
D17*
X55500Y49840D02*
X57660D01*
X58000Y49500D01*
Y46400D02*
Y49500D01*
Y46400D02*
X58200Y46200D01*
X70100D01*
X70800Y46900D01*
X73600D01*
X55500Y44760D02*
X56340D01*
X56800Y44300D01*
X71400D01*
X55500Y47300D02*
X56800D01*
X57000Y47100D01*
Y45500D02*
Y47100D01*
Y45500D02*
X57300Y45200D01*
X70500D01*
X71000Y45700D01*
X72400D01*
X58100Y40900D02*
Y42100D01*
X71200Y36000D02*
X71680Y35520D01*
X75400D01*
X71200Y36000D02*
Y42700D01*
X70500Y43400D02*
X71200Y42700D01*
X58500Y43400D02*
X70500D01*
X58100Y43000D02*
X58500Y43400D01*
X58100Y42100D02*
Y43000D01*
X75280Y35400D02*
X75400Y35520D01*
X74200Y63265D02*
X74260Y63325D01*
X74200Y61100D02*
Y63265D01*
X73700Y60600D02*
X74200Y61100D01*
X58900Y60600D02*
X73700D01*
X55460Y37100D02*
X55500Y37140D01*
X53300Y37100D02*
X55460D01*
X55480Y39700D02*
X55500Y39680D01*
X53300Y39700D02*
X55480D01*
Y42200D02*
X55500Y42220D01*
X53300Y42200D02*
X55480D01*
X46400Y45200D02*
X47400Y46200D01*
X45000Y45200D02*
X46400D01*
X46400Y40100D02*
X47400Y41100D01*
X45000Y40100D02*
X46400D01*
Y35000D02*
X47400Y36000D01*
X45000Y35000D02*
X46400D01*
X47400Y36000D02*
X49400D01*
X47400Y41100D02*
X49400D01*
X47400Y46200D02*
X49400D01*
X45075Y47200D02*
X46075Y48200D01*
X47400D01*
X49400D01*
X45075Y42100D02*
X46075Y43100D01*
X47400D01*
X49400D01*
X45075Y37000D02*
X46075Y38000D01*
X47400D01*
X49400D01*
X43525Y62275D02*
X45225D01*
X43200Y62600D02*
X43525Y62275D01*
X43200Y62600D02*
Y65100D01*
X45225Y63545D02*
X47955D01*
X48000Y63500D01*
Y61200D02*
Y63500D01*
X47800Y61000D02*
X48000Y61200D01*
X45230Y61000D02*
X47800D01*
X45225Y61005D02*
X45230Y61000D01*
X43405Y61005D02*
X45225D01*
X43200Y60800D02*
X43405Y61005D01*
X43200Y56100D02*
X43400Y55900D01*
X45200D01*
X45225Y55925D01*
X41800Y56800D02*
X43200D01*
Y56100D02*
Y56800D01*
Y60800D01*
X41945Y54655D02*
X45225D01*
X41800Y54800D02*
X41945Y54655D01*
X45225Y57195D02*
X46905D01*
X47400Y56700D01*
Y52900D02*
Y56700D01*
Y52900D02*
X48800Y51500D01*
X45225Y58465D02*
X47735D01*
X48154Y58046D01*
Y53757D02*
Y58046D01*
Y53757D02*
X50400Y51511D01*
Y51500D02*
Y51511D01*
X45225Y59735D02*
X48365D01*
X48908Y59192D01*
Y54603D02*
Y59192D01*
Y54603D02*
X52000Y51511D01*
Y51500D02*
Y51511D01*
X54375Y54655D02*
X55345D01*
X55500Y54500D01*
Y52380D02*
Y54500D01*
X52775Y55925D02*
X54375D01*
X52600Y56100D02*
X52775Y55925D01*
X52600Y56100D02*
Y60800D01*
X52805Y61005D01*
X54375D01*
X52045Y54655D02*
X54375D01*
X51700Y55000D02*
X52045Y54655D01*
X51700Y55000D02*
Y62100D01*
X51875Y62275D01*
X54375D01*
X56425D01*
X54375Y61005D02*
X56295D01*
X54375Y57195D02*
X56505D01*
X59000Y54700D01*
X54375Y58465D02*
X57535D01*
X60000Y56000D01*
X54375Y59735D02*
X58165D01*
X61139Y56761D01*
Y55228D02*
Y56761D01*
X59211Y53300D02*
X61139Y55228D01*
X58000Y53300D02*
X59211D01*
X56295Y61005D02*
X56700Y60600D01*
X58900D01*
X59100Y60800D01*
Y63800D01*
X59000Y63900D02*
X59100Y63800D01*
X57700Y63900D02*
X59000D01*
X54375Y63545D02*
X56345D01*
X56425Y62275D02*
X56800Y61900D01*
X57700D01*
X56345Y63545D02*
X56700Y63900D01*
X57700D01*
X55500Y47300D02*
X55600Y47200D01*
X55500Y49840D02*
X55540Y49800D01*
D18*
X77940Y35520D02*
X78060Y35400D01*
X79600D01*
X86000Y41800D01*
Y55500D01*
X86700Y56200D01*
X88400D01*
X35000Y52140D02*
X35070Y52070D01*
X41100D01*
X44200Y50800D02*
X46180D01*
X43400Y50000D02*
X44200Y50800D01*
X43400Y47100D02*
Y50000D01*
X35000Y36900D02*
X41225D01*
X35000Y41980D02*
X41205D01*
X35000Y47060D02*
X41185D01*
X43400Y42100D02*
Y47100D01*
X43500Y47200D01*
X45075D01*
X43400Y37300D02*
Y42100D01*
X45075D01*
X43400Y37300D02*
X43700Y37000D01*
X45075D01*
X41185Y47060D02*
X41325Y47200D01*
X41205Y41980D02*
X41325Y42100D01*
X41225Y36900D02*
X41325Y37000D01*
X97100Y63040D02*
Y64400D01*
X93200Y60100D02*
Y62400D01*
X92700Y62900D02*
X93200Y62400D01*
X90078Y62900D02*
X92700D01*
X90000Y62978D02*
X90078Y62900D01*
X92000Y64700D02*
X96800D01*
X97100Y64400D01*
X84100Y63440D02*
X89538D01*
X90000Y62978D01*
Y56500D02*
Y59422D01*
X89700Y56200D02*
X90000Y56500D01*
X88400Y56200D02*
X89700D01*
D19*
X78550Y34650D02*
D03*
D20*
X83000Y34780D02*
D03*
X98240D02*
D03*
X100780Y42400D02*
D03*
X93160D02*
D03*
X83000D02*
D03*
X84100Y45880D02*
D03*
X99340D02*
D03*
X101880Y53500D02*
D03*
X94260D02*
D03*
X84100D02*
D03*
X77940Y35520D02*
D03*
X75400D02*
D03*
X77940Y38060D02*
D03*
Y40600D02*
D03*
Y44900D02*
D03*
X74660Y51800D02*
D03*
X97100Y57960D02*
D03*
X41300Y59660D02*
D03*
D21*
X111000Y36800D02*
D03*
Y41880D02*
D03*
Y46960D02*
D03*
Y52040D02*
D03*
Y57120D02*
D03*
Y62200D02*
D03*
X35000Y36900D02*
D03*
Y41980D02*
D03*
Y47060D02*
D03*
Y52140D02*
D03*
Y57220D02*
D03*
Y62300D02*
D03*
D22*
X55500Y52380D02*
D03*
Y49840D02*
D03*
Y47300D02*
D03*
Y44760D02*
D03*
Y42220D02*
D03*
Y39680D02*
D03*
Y37140D02*
D03*
Y34600D02*
D03*
X74260Y63325D02*
D03*
X69180D02*
D03*
X66640D02*
D03*
X64100D02*
D03*
D23*
X75400Y38060D02*
D03*
D24*
Y40600D02*
D03*
D25*
Y44900D02*
D03*
X79740Y51800D02*
D03*
D26*
X84100Y63440D02*
D03*
Y58360D02*
D03*
X63220Y49300D02*
D03*
X68300D02*
D03*
X68270Y54700D02*
D03*
D27*
X97100Y63040D02*
D03*
X41300Y62200D02*
D03*
D28*
X104900Y63680D02*
D03*
X103630Y58600D02*
D03*
X46180Y50800D02*
D03*
X41100Y52070D02*
D03*
D29*
X76800Y63325D02*
D03*
D30*
X65730Y54700D02*
D03*
D31*
X64400Y34400D02*
D03*
X66400Y42100D02*
D03*
X63000D02*
D03*
X72500Y36900D02*
D03*
X45000Y35000D02*
D03*
Y40100D02*
D03*
X52000Y51500D02*
D03*
X50400D02*
D03*
X48800D02*
D03*
X45000Y45200D02*
D03*
X58100Y42100D02*
D03*
X73600Y46900D02*
D03*
X72400Y45700D02*
D03*
X71400Y44300D02*
D03*
X93200Y60100D02*
D03*
X92000Y64700D02*
D03*
X88400Y56200D02*
D03*
X48000Y63500D02*
D03*
X58000Y53300D02*
D03*
X59000Y54700D02*
D03*
X60000Y56000D02*
D03*
M02*
