G04 Layer_Color=16711935*
%FSLAX43Y43*%
%MOMM*%
G71*
G01*
G75*
%ADD57R,1.553X1.303*%
%ADD58R,1.653X1.253*%
%ADD61R,1.303X1.553*%
%ADD63C,2.203*%
%ADD64C,3.203*%
%ADD65C,1.803*%
%ADD66O,2.203X1.803*%
G04:AMPARAMS|DCode=67|XSize=1.803mm|YSize=2.203mm|CornerRadius=0.502mm|HoleSize=0mm|Usage=FLASHONLY|Rotation=270.000|XOffset=0mm|YOffset=0mm|HoleType=Round|Shape=RoundedRectangle|*
%AMROUNDEDRECTD67*
21,1,1.803,1.200,0,0,270.0*
21,1,0.800,2.203,0,0,270.0*
1,1,1.003,-0.600,-0.400*
1,1,1.003,-0.600,0.400*
1,1,1.003,0.600,0.400*
1,1,1.003,0.600,-0.400*
%
%ADD67ROUNDEDRECTD67*%
G04:AMPARAMS|DCode=68|XSize=2.203mm|YSize=2.203mm|CornerRadius=0.602mm|HoleSize=0mm|Usage=FLASHONLY|Rotation=0.000|XOffset=0mm|YOffset=0mm|HoleType=Round|Shape=RoundedRectangle|*
%AMROUNDEDRECTD68*
21,1,2.203,1.000,0,0,0.0*
21,1,1.000,2.203,0,0,0.0*
1,1,1.203,0.500,-0.500*
1,1,1.203,-0.500,-0.500*
1,1,1.203,-0.500,0.500*
1,1,1.203,0.500,0.500*
%
%ADD68ROUNDEDRECTD68*%
%ADD69C,2.003*%
G04:AMPARAMS|DCode=70|XSize=2.203mm|YSize=2.203mm|CornerRadius=0.602mm|HoleSize=0mm|Usage=FLASHONLY|Rotation=270.000|XOffset=0mm|YOffset=0mm|HoleType=Round|Shape=RoundedRectangle|*
%AMROUNDEDRECTD70*
21,1,2.203,1.000,0,0,270.0*
21,1,1.000,2.203,0,0,270.0*
1,1,1.203,-0.500,-0.500*
1,1,1.203,-0.500,0.500*
1,1,1.203,0.500,0.500*
1,1,1.203,0.500,-0.500*
%
%ADD70ROUNDEDRECTD70*%
%ADD71C,1.903*%
G04:AMPARAMS|DCode=72|XSize=1.803mm|YSize=1.803mm|CornerRadius=0.502mm|HoleSize=0mm|Usage=FLASHONLY|Rotation=180.000|XOffset=0mm|YOffset=0mm|HoleType=Round|Shape=RoundedRectangle|*
%AMROUNDEDRECTD72*
21,1,1.803,0.800,0,0,180.0*
21,1,0.800,1.803,0,0,180.0*
1,1,1.003,-0.400,0.400*
1,1,1.003,0.400,0.400*
1,1,1.003,0.400,-0.400*
1,1,1.003,-0.400,-0.400*
%
%ADD72ROUNDEDRECTD72*%
G04:AMPARAMS|DCode=73|XSize=2.003mm|YSize=2.003mm|CornerRadius=0.552mm|HoleSize=0mm|Usage=FLASHONLY|Rotation=0.000|XOffset=0mm|YOffset=0mm|HoleType=Round|Shape=RoundedRectangle|*
%AMROUNDEDRECTD73*
21,1,2.003,0.900,0,0,0.0*
21,1,0.900,2.003,0,0,0.0*
1,1,1.103,0.450,-0.450*
1,1,1.103,-0.450,-0.450*
1,1,1.103,-0.450,0.450*
1,1,1.103,0.450,0.450*
%
%ADD73ROUNDEDRECTD73*%
%ADD74C,1.473*%
%ADD75R,1.303X1.103*%
%ADD76R,1.953X1.453*%
%ADD77R,1.253X1.653*%
%ADD78R,2.153X1.103*%
%ADD79R,1.553X2.853*%
%ADD80R,1.003X1.103*%
%ADD81R,1.853X1.253*%
%ADD82R,0.803X2.403*%
%ADD83R,1.453X1.953*%
%ADD84R,2.353X2.303*%
%ADD85R,2.203X1.753*%
%ADD86O,0.803X2.403*%
%ADD87O,0.753X1.853*%
%ADD88O,1.853X0.753*%
D57*
X86400Y59500D02*
D03*
Y57500D02*
D03*
X88400Y63500D02*
D03*
Y61500D02*
D03*
D58*
X61300Y49300D02*
D03*
Y51300D02*
D03*
X65100Y49300D02*
D03*
Y51300D02*
D03*
X70200Y49300D02*
D03*
Y51300D02*
D03*
X88400Y59500D02*
D03*
Y57500D02*
D03*
X97100Y61500D02*
D03*
Y59500D02*
D03*
D61*
X42700Y57100D02*
D03*
X40700D02*
D03*
X44700Y61100D02*
D03*
X46700D02*
D03*
X50200D02*
D03*
X52200D02*
D03*
X55800D02*
D03*
X53800D02*
D03*
X55800Y56300D02*
D03*
X57800D02*
D03*
X68100Y35800D02*
D03*
X70100D02*
D03*
X79800Y40500D02*
D03*
X81800D02*
D03*
X75700Y42700D02*
D03*
X77700D02*
D03*
X75700Y47100D02*
D03*
X77700D02*
D03*
X80100Y49600D02*
D03*
X82100D02*
D03*
D63*
X83000Y34780D02*
D03*
X98240D02*
D03*
X100780Y42400D02*
D03*
X93160D02*
D03*
X83000D02*
D03*
X84100Y45880D02*
D03*
X99340D02*
D03*
X101880Y53500D02*
D03*
X94260D02*
D03*
X84100D02*
D03*
X77940Y35520D02*
D03*
X75400D02*
D03*
X77940Y38060D02*
D03*
Y40600D02*
D03*
Y44900D02*
D03*
X74660Y51800D02*
D03*
X97100Y57960D02*
D03*
X41300Y59660D02*
D03*
D64*
X111000Y36800D02*
D03*
Y41880D02*
D03*
Y46960D02*
D03*
Y52040D02*
D03*
Y57120D02*
D03*
Y62200D02*
D03*
X35000Y36900D02*
D03*
Y41980D02*
D03*
Y47060D02*
D03*
Y52140D02*
D03*
Y57220D02*
D03*
Y62300D02*
D03*
D65*
X55500Y52380D02*
D03*
Y49840D02*
D03*
Y47300D02*
D03*
Y44760D02*
D03*
Y42220D02*
D03*
Y39680D02*
D03*
Y37140D02*
D03*
Y34600D02*
D03*
X74260Y63325D02*
D03*
X69180D02*
D03*
X66640D02*
D03*
X64100D02*
D03*
D66*
X75400Y38060D02*
D03*
D67*
Y40600D02*
D03*
D68*
Y44900D02*
D03*
X79740Y51800D02*
D03*
D69*
X84100Y63440D02*
D03*
Y58360D02*
D03*
X63220Y49300D02*
D03*
X68300D02*
D03*
X68270Y54700D02*
D03*
D70*
X97100Y63040D02*
D03*
X41300Y62200D02*
D03*
D71*
X104900Y63680D02*
D03*
X103630Y58600D02*
D03*
X46180Y50800D02*
D03*
X41100Y52070D02*
D03*
D72*
X76800Y63325D02*
D03*
D73*
X65730Y54700D02*
D03*
D74*
X64400Y34400D02*
D03*
X66400Y42100D02*
D03*
X63000D02*
D03*
X72500Y36900D02*
D03*
X45000Y35000D02*
D03*
Y40100D02*
D03*
X52000Y51500D02*
D03*
X50400D02*
D03*
X48800D02*
D03*
X45000Y45200D02*
D03*
X58100Y42100D02*
D03*
X73600Y46900D02*
D03*
X72400Y45700D02*
D03*
X71400Y44300D02*
D03*
X93200Y60100D02*
D03*
X92000Y64700D02*
D03*
X88400Y56200D02*
D03*
X48000Y63500D02*
D03*
X58000Y53300D02*
D03*
X59000Y54700D02*
D03*
X60000Y56000D02*
D03*
D75*
X44525Y57050D02*
D03*
Y59150D02*
D03*
X46875Y58100D02*
D03*
D76*
X38700Y59925D02*
D03*
Y57075D02*
D03*
D77*
X57800Y59100D02*
D03*
X55800D02*
D03*
X66400Y35800D02*
D03*
X64400D02*
D03*
X78100Y51800D02*
D03*
X76100D02*
D03*
X66000Y60500D02*
D03*
X68000D02*
D03*
D78*
X44725Y36265D02*
D03*
Y37535D02*
D03*
X50875Y36265D02*
D03*
Y37535D02*
D03*
X44725Y41365D02*
D03*
Y42635D02*
D03*
X50875Y41365D02*
D03*
Y42635D02*
D03*
X44725Y46465D02*
D03*
Y47735D02*
D03*
X50875Y46465D02*
D03*
Y47735D02*
D03*
D79*
X37900Y36900D02*
D03*
X42500D02*
D03*
X37900Y42000D02*
D03*
X42500D02*
D03*
X37900Y47100D02*
D03*
X42500D02*
D03*
D80*
X80800Y36800D02*
D03*
X81750Y38800D02*
D03*
X79850D02*
D03*
X81100Y45900D02*
D03*
X82050Y47900D02*
D03*
X80150D02*
D03*
D81*
X84800Y40325D02*
D03*
Y36875D02*
D03*
X84100Y51325D02*
D03*
Y47875D02*
D03*
D82*
X90695Y62925D02*
D03*
X91965D02*
D03*
X93235D02*
D03*
X94505D02*
D03*
X90695Y58075D02*
D03*
X91965D02*
D03*
X93235D02*
D03*
X94505D02*
D03*
D83*
X102125Y63700D02*
D03*
X99275D02*
D03*
X65575Y57700D02*
D03*
X68425D02*
D03*
D84*
X100500Y61175D02*
D03*
Y57425D02*
D03*
D85*
X104422Y61100D02*
D03*
X107978D02*
D03*
D86*
X53705Y54000D02*
D03*
X52435D02*
D03*
X51165D02*
D03*
X49895D02*
D03*
X53705Y58800D02*
D03*
X52435D02*
D03*
X51165D02*
D03*
X49895D02*
D03*
D87*
X62400Y46400D02*
D03*
X63200D02*
D03*
X64000D02*
D03*
X64800D02*
D03*
X65600D02*
D03*
X66400D02*
D03*
X67200D02*
D03*
X68000D02*
D03*
Y38000D02*
D03*
X67200D02*
D03*
X66400D02*
D03*
X65600D02*
D03*
X64800D02*
D03*
X64000D02*
D03*
X63200D02*
D03*
X62400D02*
D03*
D88*
X69400Y45000D02*
D03*
Y44200D02*
D03*
Y43400D02*
D03*
Y42600D02*
D03*
Y41800D02*
D03*
Y41000D02*
D03*
Y40200D02*
D03*
Y39400D02*
D03*
X61000D02*
D03*
Y40200D02*
D03*
Y41000D02*
D03*
Y41800D02*
D03*
Y42600D02*
D03*
Y43400D02*
D03*
Y44200D02*
D03*
Y45000D02*
D03*
M02*
