M48
;Layer_Color=9474304
;FILE_FORMAT=4:3
METRIC,LZ
;TYPE=PLATED
T1F00S00C0.700
T2F00S00C0.800
T3F00S00C1.000
T4F00S00C1.300
T5F00S00C1.500
%
T01
X0045Y0035
X00644Y00344
X00725Y00369
X00884Y00562
X00932Y00601
X0092Y00647
X00736Y00469
X00724Y00457
X00714Y00443
X00664Y00421
X0063
X00581
X0058Y00533
X0059Y00547
X006Y0056
X0052Y00515
X00504
X00488
X0045Y00452
Y00401
X0048Y00635
T02
X010363Y00586
X01049Y006368
X00768Y0063325
X007426
X006918
X006664
X00641
X006573Y00547
X006827
X00683Y00493
X006322
X004618Y00508
X00411Y005207
T03
X00555Y00346
Y003714
Y003968
X00754Y003806
Y003552
X007794
Y003806
X007974Y00518
X00841Y005836
Y006344
X00971Y006304
Y005796
X007466Y00518
X00754Y00449
X007794
Y00406
X00754
X00555Y004222
Y004476
Y00473
Y004984
Y005238
X00413Y005966
Y00622
T04
X0083Y003478
X009824
X010078Y00424
X009934Y004588
X009316Y00424
X0083
X00841Y004588
Y00535
X009426
X010188
T05
X0035Y00369
X0111Y00368
Y004188
Y004696
Y005204
Y005712
Y00622
X0035Y00623
Y005722
Y005214
Y004706
Y004198
M30
