%FSLAX24Y24*%
%MOIN*%
G70*
G01*
G75*
G04 Layer_Physical_Order=2*
G04 Layer_Color=65280*
%ADD10R,0.0532X0.0433*%
%ADD11R,0.0571X0.0413*%
%ADD12O,0.0906X0.0236*%
%ADD13R,0.0827X0.0846*%
%ADD14R,0.0433X0.0532*%
%ADD15R,0.0610X0.0787*%
%ADD16C,0.0295*%
%ADD17C,0.0197*%
%ADD18C,0.0394*%
%ADD19R,0.0984X0.0906*%
%ADD20C,0.0787*%
%ADD21C,0.1181*%
%ADD22C,0.0630*%
%ADD23O,0.0787X0.0630*%
G04:AMPARAMS|DCode=24|XSize=63mil|YSize=78.7mil|CornerRadius=15.7mil|HoleSize=0mil|Usage=FLASHONLY|Rotation=270.000|XOffset=0mil|YOffset=0mil|HoleType=Round|Shape=RoundedRectangle|*
%AMROUNDEDRECTD24*
21,1,0.0630,0.0472,0,0,270.0*
21,1,0.0315,0.0787,0,0,270.0*
1,1,0.0315,-0.0236,-0.0157*
1,1,0.0315,-0.0236,0.0157*
1,1,0.0315,0.0236,0.0157*
1,1,0.0315,0.0236,-0.0157*
%
%ADD24ROUNDEDRECTD24*%
G04:AMPARAMS|DCode=25|XSize=78.7mil|YSize=78.7mil|CornerRadius=19.7mil|HoleSize=0mil|Usage=FLASHONLY|Rotation=0.000|XOffset=0mil|YOffset=0mil|HoleType=Round|Shape=RoundedRectangle|*
%AMROUNDEDRECTD25*
21,1,0.0787,0.0394,0,0,0.0*
21,1,0.0394,0.0787,0,0,0.0*
1,1,0.0394,0.0197,-0.0197*
1,1,0.0394,-0.0197,-0.0197*
1,1,0.0394,-0.0197,0.0197*
1,1,0.0394,0.0197,0.0197*
%
%ADD25ROUNDEDRECTD25*%
%ADD26C,0.0709*%
G04:AMPARAMS|DCode=27|XSize=78.7mil|YSize=78.7mil|CornerRadius=19.7mil|HoleSize=0mil|Usage=FLASHONLY|Rotation=270.000|XOffset=0mil|YOffset=0mil|HoleType=Round|Shape=RoundedRectangle|*
%AMROUNDEDRECTD27*
21,1,0.0787,0.0394,0,0,270.0*
21,1,0.0394,0.0787,0,0,270.0*
1,1,0.0394,-0.0197,-0.0197*
1,1,0.0394,-0.0197,0.0197*
1,1,0.0394,0.0197,0.0197*
1,1,0.0394,0.0197,-0.0197*
%
%ADD27ROUNDEDRECTD27*%
%ADD28C,0.0669*%
G04:AMPARAMS|DCode=29|XSize=63mil|YSize=63mil|CornerRadius=15.7mil|HoleSize=0mil|Usage=FLASHONLY|Rotation=180.000|XOffset=0mil|YOffset=0mil|HoleType=Round|Shape=RoundedRectangle|*
%AMROUNDEDRECTD29*
21,1,0.0630,0.0315,0,0,180.0*
21,1,0.0315,0.0630,0,0,180.0*
1,1,0.0315,-0.0157,0.0157*
1,1,0.0315,0.0157,0.0157*
1,1,0.0315,0.0157,-0.0157*
1,1,0.0315,-0.0157,-0.0157*
%
%ADD29ROUNDEDRECTD29*%
G04:AMPARAMS|DCode=30|XSize=70.9mil|YSize=70.9mil|CornerRadius=17.7mil|HoleSize=0mil|Usage=FLASHONLY|Rotation=0.000|XOffset=0mil|YOffset=0mil|HoleType=Round|Shape=RoundedRectangle|*
%AMROUNDEDRECTD30*
21,1,0.0709,0.0354,0,0,0.0*
21,1,0.0354,0.0709,0,0,0.0*
1,1,0.0354,0.0177,-0.0177*
1,1,0.0354,-0.0177,-0.0177*
1,1,0.0354,-0.0177,0.0177*
1,1,0.0354,0.0177,0.0177*
%
%ADD30ROUNDEDRECTD30*%
%ADD31C,0.0500*%
%ADD32R,0.0433X0.0354*%
%ADD33R,0.0689X0.0492*%
%ADD34R,0.0413X0.0571*%
%ADD35R,0.0768X0.0354*%
%ADD36R,0.0532X0.1043*%
%ADD37R,0.0315X0.0354*%
%ADD38R,0.0650X0.0413*%
%ADD39R,0.0236X0.0866*%
%ADD40R,0.0492X0.0689*%
%ADD41R,0.0846X0.0827*%
%ADD42R,0.0787X0.0610*%
%ADD43O,0.0236X0.0866*%
%ADD44O,0.0217X0.0650*%
%ADD45O,0.0650X0.0217*%
%ADD46C,0.0591*%
%ADD47C,0.0787*%
%ADD48C,0.0118*%
%ADD49C,0.0236*%
%ADD50R,0.0591X0.1575*%
%ADD51R,0.0039X0.1654*%
%ADD52R,0.1378X0.2283*%
G36*
X35805Y22234D02*
X35827D01*
Y22205D01*
X37283D01*
Y22205D01*
X37410Y22331D01*
X37425D01*
Y22346D01*
D01*
X37577Y22471D01*
X37747Y22437D01*
X37776Y22367D01*
X38130Y22220D01*
Y22819D01*
X38327D01*
Y22220D01*
X38680Y22367D01*
X38754Y22544D01*
X38947Y22506D01*
Y21998D01*
X39457D01*
X39533Y21816D01*
X39370Y21654D01*
X35268D01*
X35159Y21817D01*
X35287Y22126D01*
Y22126D01*
X35319Y22204D01*
X35392Y22234D01*
D01*
X35392Y22234D01*
X35392Y22234D01*
X35608D01*
Y22864D01*
X35805D01*
Y22234D01*
D02*
G37*
G36*
X32480Y22795D02*
X32693D01*
X32763Y22629D01*
X33110Y22485D01*
X33389Y22600D01*
X33553Y22491D01*
Y22224D01*
X33917D01*
Y22638D01*
X34114D01*
Y22224D01*
X34254D01*
X34319Y22126D01*
X34319Y22126D01*
X34319D01*
X34447Y21817D01*
X34338Y21654D01*
X32874D01*
X32677Y21457D01*
Y21308D01*
X32576Y21063D01*
X32677Y20818D01*
Y19990D01*
X32421D01*
Y19528D01*
X32224D01*
Y19990D01*
X32126D01*
Y20827D01*
X32087Y20866D01*
X31890Y21063D01*
X30315D01*
X30128Y20876D01*
X30059D01*
Y20394D01*
X29862D01*
Y20876D01*
X29773D01*
X29492Y20992D01*
Y20394D01*
X29394D01*
Y20295D01*
X28795D01*
X28942Y19942D01*
X29095Y19878D01*
X29057Y19685D01*
X28543D01*
X28150Y20079D01*
X28120D01*
Y20098D01*
X27156D01*
Y20079D01*
X26112D01*
Y20098D01*
X25148D01*
Y20079D01*
X24616D01*
Y20098D01*
X24134D01*
Y20197D01*
X24035D01*
Y20600D01*
X23898D01*
Y21798D01*
X24001Y22047D01*
X25362D01*
X25472Y21884D01*
X25401Y21713D01*
Y21358D01*
X25489Y21146D01*
X25701Y21058D01*
X26055D01*
X26267Y21146D01*
X26309Y21247D01*
X26506D01*
X26530Y21188D01*
X26878Y21044D01*
X27226Y21188D01*
X27370Y21535D01*
X27226Y21883D01*
Y21883D01*
Y21883D01*
X27294Y22047D01*
X27756D01*
X27953Y22244D01*
Y25591D01*
X28986D01*
X29025Y25397D01*
X28844Y25323D01*
X28723Y25030D01*
X29236D01*
Y24931D01*
X29335D01*
Y24418D01*
X29628Y24539D01*
X29664Y24627D01*
X29861D01*
X29882Y24577D01*
X30079Y24495D01*
X30394D01*
X30591Y24577D01*
X30672Y24774D01*
Y25089D01*
X30591Y25286D01*
X30394Y25367D01*
X30079D01*
X29882Y25286D01*
X29861Y25236D01*
X29664D01*
X29628Y25323D01*
X29448Y25397D01*
X29486Y25591D01*
X32480D01*
Y22795D01*
D02*
G37*
%LPC*%
G36*
X26112Y20600D02*
X25728D01*
Y20295D01*
X26112D01*
Y20600D01*
D02*
G37*
G36*
X25531D02*
X25148D01*
Y20295D01*
X25531D01*
Y20600D01*
D02*
G37*
G36*
X24616D02*
X24232D01*
Y20295D01*
X24616D01*
Y20600D01*
D02*
G37*
G36*
X27539D02*
X27156D01*
Y20295D01*
X27539D01*
Y20600D01*
D02*
G37*
G36*
X29138Y24833D02*
X28723D01*
X28844Y24539D01*
X29138Y24418D01*
Y24833D01*
D02*
G37*
G36*
X29295Y20992D02*
X28942Y20846D01*
X28795Y20492D01*
X29295D01*
Y20992D01*
D02*
G37*
G36*
X28120Y20600D02*
X27736D01*
Y20295D01*
X28120D01*
Y20600D01*
D02*
G37*
%LPD*%
D10*
X34016Y23425D02*
D03*
Y22638D02*
D03*
X34803Y25000D02*
D03*
Y24213D02*
D03*
D11*
X24134Y19409D02*
D03*
Y20197D02*
D03*
X25630Y19409D02*
D03*
Y20197D02*
D03*
X27638Y19409D02*
D03*
Y20197D02*
D03*
X34803Y23425D02*
D03*
Y22638D02*
D03*
X38228Y24213D02*
D03*
Y23425D02*
D03*
D14*
X16811Y22480D02*
D03*
X16024D02*
D03*
X17598Y24055D02*
D03*
X18386D02*
D03*
X19764D02*
D03*
X20551D02*
D03*
X21969D02*
D03*
X21181D02*
D03*
X21969Y22165D02*
D03*
X22756D02*
D03*
X26811Y14094D02*
D03*
X27598D02*
D03*
X31417Y15945D02*
D03*
X32205D02*
D03*
X29803Y16811D02*
D03*
X30591D02*
D03*
X29803Y18543D02*
D03*
X30591D02*
D03*
X31535Y19528D02*
D03*
X32323D02*
D03*
D16*
X32677Y13693D02*
X32709Y13661D01*
X33268D01*
X33386Y13780D01*
Y14518D01*
X32677Y16693D02*
X33189D01*
X33386Y16496D01*
Y15876D02*
Y16496D01*
X25630Y20197D02*
X27638D01*
X32323Y19528D02*
Y22126D01*
X26939Y22717D02*
Y23868D01*
X26890Y23819D02*
X26939Y23868D01*
X26772Y23819D02*
X26890D01*
X27236Y24165D02*
Y24931D01*
X26939Y23868D02*
X27236Y24165D01*
X26939Y21596D02*
Y22717D01*
X26878Y21535D02*
X26939Y21596D01*
X25817Y22717D02*
Y23829D01*
X25827Y23819D01*
X25984D01*
X25197Y24892D02*
X25236Y24931D01*
X25197Y24449D02*
Y24892D01*
Y24449D02*
X25817Y23829D01*
Y21596D02*
Y22717D01*
Y21596D02*
X25878Y21535D01*
X24134Y20197D02*
X25630D01*
X33110Y18063D02*
Y18848D01*
Y20207D02*
Y21063D01*
X32185Y15276D02*
Y15925D01*
X32303Y19508D02*
X32323Y19528D01*
X32303Y18858D02*
Y19508D01*
X15341Y23488D02*
X16260D01*
X15236Y23593D02*
X15341Y23488D01*
X15236Y22470D02*
X15246Y22480D01*
X16024D01*
X16260Y24488D02*
X16890D01*
X17047Y24646D01*
X18189D01*
X18386Y24449D01*
Y24055D02*
Y24449D01*
X13780Y24528D02*
X16220D01*
X16260Y24488D01*
X13780Y22528D02*
X13837Y22470D01*
X15236D01*
D17*
X26142Y14094D02*
X26457Y14409D01*
Y14961D01*
X26142Y14094D02*
X26811D01*
X25512Y16575D02*
Y17480D01*
Y14961D02*
Y16575D01*
X26142D01*
X24803D02*
X25512D01*
X26457Y15433D02*
X26693Y15669D01*
Y17559D01*
X26457Y14961D02*
Y15433D01*
X26614Y17638D02*
X26693Y17559D01*
X26220Y17638D02*
X26614D01*
X26142Y17717D02*
X26220Y17638D01*
X26142Y17717D02*
Y18268D01*
X28504Y18898D02*
X28583Y18976D01*
X28504Y17992D02*
Y18898D01*
X28307Y19331D02*
X30039D01*
X28207Y19230D02*
X28307Y19331D01*
X28207Y18329D02*
Y19230D01*
X27953Y16772D02*
X28110Y16929D01*
X28465Y16457D02*
X28559Y16551D01*
X28898Y16142D02*
X28976Y16220D01*
X27323Y16142D02*
X28898D01*
X29646Y15945D02*
X29685Y15984D01*
X29213Y15945D02*
X29646D01*
X29094Y15827D02*
X29213Y15945D01*
X27323Y15827D02*
X29094D01*
X23268Y17717D02*
X24016D01*
X23622Y22047D02*
X23677Y21993D01*
Y20606D02*
Y21993D01*
X23189Y20118D02*
X23677Y20606D01*
X23189Y17795D02*
Y20118D01*
Y17795D02*
X23268Y17717D01*
X23228Y21225D02*
Y21535D01*
Y21225D02*
X23307Y21146D01*
Y20787D02*
Y21146D01*
X22795Y20276D02*
X23307Y20787D01*
X22795Y17520D02*
Y20276D01*
Y17520D02*
X22913Y17402D01*
X22480Y20984D02*
X22835D01*
X22402Y20906D02*
X22480Y20984D01*
X22402Y17283D02*
Y20906D01*
Y17283D02*
X22598Y17087D01*
X32185Y15925D02*
Y16348D01*
X22756Y22717D02*
X25817D01*
X26142Y18268D02*
Y18658D01*
X25943Y18857D02*
X26142Y18658D01*
X25512Y17480D02*
X25827Y17795D01*
Y18268D01*
X25512Y18857D02*
X25943D01*
X24661D02*
X25512D01*
X25512Y18857D02*
X25512Y18857D01*
X25512Y18268D02*
Y18857D01*
X24134Y18976D02*
Y19409D01*
Y18976D02*
X24252Y18858D01*
X24659D01*
X24661Y18857D01*
X26457Y18268D02*
Y18937D01*
X25984Y19409D02*
X26457Y18937D01*
X26772Y14961D02*
X26795Y14984D01*
X28512Y14559D02*
X28543Y14528D01*
X27300Y14559D02*
X28512D01*
X26836Y14094D02*
X27300Y14559D01*
X26811Y14094D02*
X26836D01*
X29598Y13898D02*
X29685Y13984D01*
X28228Y13898D02*
X29598D01*
X28031Y14094D02*
X28228Y13898D01*
X27598Y14094D02*
X28031D01*
X26795Y14984D02*
X29685D01*
X26772Y14724D02*
X26772Y14724D01*
X25354Y13386D02*
Y14094D01*
X31260Y17677D02*
Y18386D01*
Y17273D02*
Y17677D01*
X30685D02*
X31260D01*
Y17273D02*
X32185Y16348D01*
X31260Y18386D02*
X31339Y18465D01*
X32126D01*
X32303Y18642D01*
Y18858D01*
X32646Y13661D02*
X32677Y13693D01*
X32165Y13661D02*
X32646D01*
X31811Y14016D02*
X32165Y13661D01*
X31811Y14016D02*
Y14488D01*
X31437Y15276D02*
Y15925D01*
X31417Y15945D02*
X31437Y15925D01*
X31417Y15945D02*
Y16693D01*
X31299Y16811D02*
X31417Y16693D01*
X30591Y16811D02*
X31299D01*
X33102Y18071D02*
X33110Y18063D01*
X31929Y18071D02*
X33102D01*
X31555Y18858D02*
Y19508D01*
X31535Y19528D02*
X31555Y19508D01*
X30748Y19528D02*
X31535D01*
X30591Y19370D02*
X30748Y19528D01*
X30591Y18543D02*
Y19370D01*
X29055Y16811D02*
X29803D01*
X30197Y18913D02*
Y19173D01*
X30039Y19331D02*
X30197Y19173D01*
X27594Y17717D02*
X28207Y18329D01*
X27323Y17717D02*
X27594D01*
X29803Y18543D02*
Y18819D01*
X29646Y18976D02*
X29803Y18819D01*
X28583Y18976D02*
X29646D01*
X21843Y16614D02*
X21850Y16622D01*
X21220Y16614D02*
X21843D01*
X21142Y16693D02*
X21220Y16614D01*
X21142Y16693D02*
Y18583D01*
X20931Y18793D02*
X21142Y18583D01*
X20030Y18793D02*
X20931D01*
X20835Y15622D02*
X21850D01*
X20709Y15748D02*
X20835Y15622D01*
X20709Y15748D02*
Y16693D01*
X20616Y16785D02*
X20709Y16693D01*
X20030Y16785D02*
X20616D01*
X21835Y14606D02*
X21850Y14622D01*
X20827Y14606D02*
X21835D01*
X20656Y14778D02*
X20827Y14606D01*
X20030Y14778D02*
X20656D01*
X20874Y19646D02*
X21850Y20622D01*
X19488Y19646D02*
X20874D01*
X19370Y19528D02*
X19488Y19646D01*
X19370Y18268D02*
Y19528D01*
X18181Y19496D02*
Y20000D01*
Y19496D02*
X18293Y19384D01*
Y18793D02*
Y19384D01*
X16811Y22480D02*
X16831Y22461D01*
X17530D01*
X17520Y22451D02*
X17530Y22461D01*
X17520Y22087D02*
Y22451D01*
Y22087D02*
X17598Y22008D01*
X20157D01*
X17530Y23986D02*
X17598Y24055D01*
X17530Y23287D02*
Y23986D01*
Y23287D02*
X17894D01*
X17992Y23189D01*
Y22559D02*
Y23189D01*
Y22559D02*
X18228Y22323D01*
X19803D01*
X19370Y16260D02*
Y18268D01*
Y14370D02*
Y16260D01*
X19396Y16285D01*
X20030D01*
X19396Y18293D02*
X20030D01*
X19370Y18268D02*
X19396Y18293D01*
X19370Y14370D02*
X19463Y14278D01*
X20030D01*
X18307Y14882D02*
Y16791D01*
X18301Y16785D02*
X18307Y16791D01*
X17608Y16785D02*
X18301D01*
X18203Y14778D02*
X18307Y14882D01*
X17608Y14778D02*
X18203D01*
X17608Y18293D02*
X17717Y18185D01*
Y17795D02*
Y18185D01*
X17608Y16285D02*
X17717Y16177D01*
Y15787D02*
Y16177D01*
X17608Y14278D02*
X17717Y14169D01*
Y13780D02*
Y14169D01*
X16732Y18543D02*
X16982Y18293D01*
X17608D01*
X16732Y16535D02*
X16982Y16285D01*
X17608D01*
X16732Y14528D02*
X16982Y14278D01*
X17608D01*
X20644Y23150D02*
Y23963D01*
X20551Y24055D02*
X20644Y23963D01*
X21144Y23150D02*
Y23348D01*
X21220Y23425D01*
X21811D01*
X21969Y23268D01*
Y24055D01*
X19644Y23150D02*
Y23935D01*
X19764Y24055D01*
X20144Y22663D02*
Y23150D01*
X19803Y22323D02*
X20144Y22663D01*
X20644Y22494D02*
Y23150D01*
X20157Y22008D02*
X20644Y22494D01*
X22756Y23268D02*
Y25512D01*
X27126D01*
X17608Y18793D02*
X18293D01*
X18307Y18780D01*
Y16791D02*
Y18780D01*
X27236Y24931D02*
Y25402D01*
X27126Y25512D02*
X27236Y25402D01*
X21969Y22795D02*
Y23268D01*
Y22795D02*
X22047Y22717D01*
X22756D01*
X19921Y25512D02*
X22756D01*
X19764Y25354D02*
X19921Y25512D01*
X22756Y22165D02*
Y22717D01*
X21144Y21260D02*
Y22010D01*
X21299Y22165D01*
X21969D01*
X33110Y22976D02*
Y23937D01*
X34173Y25000D01*
X34803D01*
X19644Y20982D02*
Y21260D01*
X19213Y20551D02*
X19644Y20982D01*
X19213Y20276D02*
Y20551D01*
X19843Y20276D02*
Y20591D01*
X19976Y20724D01*
X20512D02*
X20644Y20856D01*
Y21260D01*
X20144Y20738D02*
Y21260D01*
Y20738D02*
X20157Y20724D01*
X19976D02*
X20157D01*
X20512D01*
X21144Y20593D02*
Y21260D01*
X20827Y20276D02*
X21144Y20593D01*
X20472Y20276D02*
X20827D01*
X18898Y25000D02*
X19764D01*
Y24055D02*
Y25000D01*
Y25354D01*
X24016Y17402D02*
X24016Y17402D01*
X22598Y17087D02*
X24016D01*
X22913Y17402D02*
X24016D01*
X24882Y14488D02*
Y14961D01*
X24764Y14370D02*
X24882Y14488D01*
X22102Y14370D02*
X24764D01*
X21850Y14622D02*
X22102Y14370D01*
X24567Y14764D02*
Y14961D01*
X24528Y14724D02*
X24567Y14764D01*
X22559Y14724D02*
X24528D01*
X22441Y14843D02*
X22559Y14724D01*
X22441Y14843D02*
Y15551D01*
X22362Y15630D02*
X22441Y15551D01*
X21858Y15630D02*
X22362D01*
X21850Y15622D02*
X21858Y15630D01*
X22961Y15512D02*
X24016D01*
X21850Y16622D02*
X22961Y15512D01*
X23071Y16772D02*
X24016D01*
X22874Y16575D02*
X23071Y16772D01*
X27323D02*
X27953D01*
X28110Y16929D02*
Y17441D01*
X27323Y16457D02*
X28465D01*
X28559Y16551D02*
Y17937D01*
X28504Y17992D02*
X28559Y17937D01*
X28976Y16220D02*
Y18465D01*
X29661Y14961D02*
X29685Y14984D01*
X25512Y14252D02*
Y14961D01*
X25354Y14094D02*
X25512Y14252D01*
X25827Y14409D02*
Y14961D01*
Y14409D02*
X26142Y14094D01*
X29575D02*
X29685Y13984D01*
X25197Y17795D02*
X25512Y17480D01*
X25197Y17795D02*
Y18268D01*
X26772D02*
Y18622D01*
X26890Y18740D01*
Y19409D01*
X27638D01*
X25630D02*
X25984D01*
X24890D02*
X25630D01*
D18*
X29961Y20394D02*
X30000D01*
X29394D02*
X29961D01*
X29236Y22126D02*
X29394Y21969D01*
X29236Y22126D02*
X29236Y22126D01*
X29394Y20394D02*
Y21969D01*
X27638Y20197D02*
Y21969D01*
X27795Y22126D01*
X29236D01*
X29236Y22126D02*
X32323D01*
X29236Y22126D02*
Y24931D01*
X32323Y22126D02*
X34803D01*
X13780Y14528D02*
X14921D01*
X13780Y16528D02*
X14913D01*
X14921Y16535D01*
X13780Y18528D02*
X13795Y18543D01*
X14921D01*
X30787Y20394D02*
X31394D01*
X14906Y18528D02*
X14921Y18543D01*
X33087Y22953D02*
X33110Y22976D01*
X38228Y24213D02*
Y24819D01*
Y22819D02*
Y23425D01*
X34803Y22126D02*
Y22638D01*
X38228Y24213D02*
X39439D01*
X39567Y24085D01*
X41082D02*
X41111Y24055D01*
X40207Y25079D02*
X40354Y24931D01*
Y24085D02*
Y24931D01*
X39567Y24085D02*
X40354D01*
X41082D01*
X38228Y22008D02*
Y22819D01*
X39567Y22008D02*
Y22608D01*
X34803Y22126D02*
X34921Y22008D01*
X38228D01*
X34016Y22638D02*
X34803D01*
D20*
X32677Y13693D02*
D03*
X38677D02*
D03*
X39677Y16693D02*
D03*
X36677D02*
D03*
X32677D02*
D03*
X33110Y18063D02*
D03*
X39110D02*
D03*
X40110Y21063D02*
D03*
X37110D02*
D03*
X33110D02*
D03*
X30685Y13984D02*
D03*
X29685D02*
D03*
X30685Y14984D02*
D03*
Y15984D02*
D03*
Y17677D02*
D03*
X29394Y20394D02*
D03*
X38228Y22819D02*
D03*
X16260Y23488D02*
D03*
D21*
X43701Y14488D02*
D03*
Y16488D02*
D03*
Y18488D02*
D03*
Y20488D02*
D03*
Y22488D02*
D03*
Y24488D02*
D03*
X13780Y14528D02*
D03*
Y16528D02*
D03*
Y18528D02*
D03*
Y20528D02*
D03*
Y22528D02*
D03*
Y24528D02*
D03*
D22*
X21850Y20622D02*
D03*
Y19622D02*
D03*
Y18622D02*
D03*
Y17622D02*
D03*
Y16622D02*
D03*
Y15622D02*
D03*
Y14622D02*
D03*
Y13622D02*
D03*
X29236Y24931D02*
D03*
X27236D02*
D03*
X26236D02*
D03*
X25236D02*
D03*
D23*
X29685Y14984D02*
D03*
D24*
Y15984D02*
D03*
D25*
Y17677D02*
D03*
X31394Y20394D02*
D03*
D26*
X33110Y24976D02*
D03*
Y22976D02*
D03*
X24890Y19409D02*
D03*
X26890D02*
D03*
X26878Y21535D02*
D03*
D27*
X38228Y24819D02*
D03*
X16260Y24488D02*
D03*
D28*
X41299Y25071D02*
D03*
X40799Y23071D02*
D03*
X18181Y20000D02*
D03*
X16181Y20500D02*
D03*
D29*
X30236Y24931D02*
D03*
D30*
X25878Y21535D02*
D03*
D31*
X25354Y13543D02*
D03*
X26142Y16575D02*
D03*
X24803D02*
D03*
X28543Y14528D02*
D03*
X17717Y13780D02*
D03*
Y15787D02*
D03*
X20472Y20276D02*
D03*
X19843D02*
D03*
X19213D02*
D03*
X17717Y17795D02*
D03*
X22874Y16575D02*
D03*
X28976Y18465D02*
D03*
X28504Y17992D02*
D03*
X28110Y17441D02*
D03*
X36693Y23661D02*
D03*
X36220Y25472D02*
D03*
X34803Y22126D02*
D03*
X18898Y25000D02*
D03*
X22835Y20984D02*
D03*
X23228Y21535D02*
D03*
X23622Y22047D02*
D03*
D32*
X17530Y22461D02*
D03*
Y23287D02*
D03*
X18455Y22874D02*
D03*
D33*
X15236Y23593D02*
D03*
Y22470D02*
D03*
D34*
X22756Y23268D02*
D03*
X21969D02*
D03*
X26142Y14094D02*
D03*
X25354D02*
D03*
X30748Y20394D02*
D03*
X29961D02*
D03*
X25984Y23819D02*
D03*
X26772D02*
D03*
D35*
X17608Y14278D02*
D03*
Y14778D02*
D03*
X20030Y14278D02*
D03*
Y14778D02*
D03*
X17608Y16285D02*
D03*
Y16785D02*
D03*
X20030Y16285D02*
D03*
Y16785D02*
D03*
X17608Y18293D02*
D03*
Y18793D02*
D03*
X20030Y18293D02*
D03*
Y18793D02*
D03*
D36*
X14921Y14528D02*
D03*
X16732D02*
D03*
X14921Y16535D02*
D03*
X16732D02*
D03*
X14921Y18543D02*
D03*
X16732D02*
D03*
D37*
X31811Y14488D02*
D03*
X32185Y15276D02*
D03*
X31437D02*
D03*
X31929Y18071D02*
D03*
X32303Y18858D02*
D03*
X31555D02*
D03*
D38*
X33386Y15876D02*
D03*
Y14518D02*
D03*
X33110Y20207D02*
D03*
Y18848D02*
D03*
D39*
X35707Y24774D02*
D03*
X36207D02*
D03*
X36707D02*
D03*
X37207D02*
D03*
X35707Y22864D02*
D03*
X36207D02*
D03*
X36707D02*
D03*
X37207D02*
D03*
D40*
X40207Y25079D02*
D03*
X39085D02*
D03*
X25817Y22717D02*
D03*
X26939D02*
D03*
D41*
X39567Y24085D02*
D03*
Y22608D02*
D03*
D42*
X41111Y24055D02*
D03*
X42511D02*
D03*
D43*
X21144Y21260D02*
D03*
X20644D02*
D03*
X20144D02*
D03*
X19644D02*
D03*
X21144Y23150D02*
D03*
X20644D02*
D03*
X20144D02*
D03*
X19644D02*
D03*
D44*
X24567Y18268D02*
D03*
X24882D02*
D03*
X25197D02*
D03*
X25512D02*
D03*
X25827D02*
D03*
X26142D02*
D03*
X26457D02*
D03*
X26772D02*
D03*
Y14961D02*
D03*
X26457D02*
D03*
X26142D02*
D03*
X25827D02*
D03*
X25512D02*
D03*
X25197D02*
D03*
X24882D02*
D03*
X24567D02*
D03*
D45*
X27323Y17717D02*
D03*
Y17402D02*
D03*
Y17087D02*
D03*
Y16772D02*
D03*
Y16457D02*
D03*
Y16142D02*
D03*
Y15827D02*
D03*
Y15512D02*
D03*
X24016D02*
D03*
Y15827D02*
D03*
Y16142D02*
D03*
Y16457D02*
D03*
Y16772D02*
D03*
Y17087D02*
D03*
Y17402D02*
D03*
Y17717D02*
D03*
D46*
X38228Y22008D02*
X39567D01*
X39110Y19063D02*
X39685Y18488D01*
X37110Y21063D02*
X39110Y19063D01*
Y18063D02*
Y19063D01*
X39685Y18488D02*
X43701D01*
X38677Y14693D02*
X38882Y14488D01*
X36677Y16693D02*
X38677Y14693D01*
Y13693D02*
Y14693D01*
X38882Y14488D02*
X43701D01*
X40685Y20488D02*
X43701D01*
X40110Y21063D02*
X40685Y20488D01*
X41299Y25071D02*
X43118D01*
X43701Y24488D01*
X40799Y23071D02*
X42087D01*
X42520Y23504D01*
Y24046D01*
X42511Y24055D02*
X42520Y24046D01*
X43220Y22008D02*
X43701Y22488D01*
X39567Y22008D02*
X43220D01*
D47*
X39882Y16488D02*
X43701D01*
X39677Y16693D02*
X39882Y16488D01*
D48*
X29685Y17677D02*
X30197Y18189D01*
Y18913D01*
X20197Y24528D02*
X21102D01*
X21142Y24488D01*
Y24055D02*
Y24488D01*
X20144Y23150D02*
Y24474D01*
X20197Y24528D01*
X27323Y15512D02*
X27324Y15510D01*
X30159D01*
X30685Y14984D01*
D49*
X19213Y24055D02*
X19764D01*
X19055Y23898D02*
X19213Y24055D01*
X19055Y23071D02*
Y23898D01*
X18858Y22874D02*
X19055Y23071D01*
X18455Y22874D02*
X18858D01*
X35707Y24250D02*
Y24774D01*
X35669Y24213D02*
X35707Y24250D01*
X34803Y24213D02*
X35669D01*
X34449D02*
X34803D01*
X34016Y23780D02*
X34449Y24213D01*
X34016Y23425D02*
Y23780D01*
X34803Y23425D02*
X34961Y23583D01*
X36142D01*
X36207Y23518D01*
Y22864D02*
Y23518D01*
X37207Y22864D02*
Y24774D01*
X38976Y25630D02*
X39085Y25522D01*
X36207Y24774D02*
Y25459D01*
X36220Y25472D01*
X36707Y22864D02*
Y23648D01*
X36693Y23661D02*
X36707Y23648D01*
X35707Y22561D02*
Y22864D01*
Y22561D02*
X35709Y22559D01*
X34803Y22638D02*
X34882Y22559D01*
X37207Y25630D02*
X38976D01*
X39085Y24882D02*
Y25079D01*
Y25522D01*
X36707Y24774D02*
Y25565D01*
X36772Y25630D01*
X37207D01*
Y24774D02*
Y25630D01*
X34882Y22559D02*
X35709D01*
D50*
X26161Y16614D02*
D03*
D51*
X25846Y16575D02*
D03*
D52*
X25217Y16614D02*
D03*
M02*
