%FSLAX24Y24*%
%MOIN*%
G70*
G01*
G75*
G04 Layer_Color=16711935*
%ADD10R,0.0532X0.0433*%
%ADD11R,0.0571X0.0413*%
%ADD12O,0.0906X0.0236*%
%ADD13R,0.0827X0.0846*%
%ADD14R,0.0433X0.0532*%
%ADD15R,0.0610X0.0787*%
%ADD16C,0.0295*%
%ADD17C,0.0197*%
%ADD18C,0.0394*%
%ADD19R,0.0984X0.0906*%
%ADD20C,0.0787*%
%ADD21C,0.1181*%
%ADD22C,0.0630*%
%ADD23O,0.0787X0.0630*%
G04:AMPARAMS|DCode=24|XSize=63mil|YSize=78.7mil|CornerRadius=15.7mil|HoleSize=0mil|Usage=FLASHONLY|Rotation=270.000|XOffset=0mil|YOffset=0mil|HoleType=Round|Shape=RoundedRectangle|*
%AMROUNDEDRECTD24*
21,1,0.0630,0.0472,0,0,270.0*
21,1,0.0315,0.0787,0,0,270.0*
1,1,0.0315,-0.0236,-0.0157*
1,1,0.0315,-0.0236,0.0157*
1,1,0.0315,0.0236,0.0157*
1,1,0.0315,0.0236,-0.0157*
%
%ADD24ROUNDEDRECTD24*%
G04:AMPARAMS|DCode=25|XSize=78.7mil|YSize=78.7mil|CornerRadius=19.7mil|HoleSize=0mil|Usage=FLASHONLY|Rotation=0.000|XOffset=0mil|YOffset=0mil|HoleType=Round|Shape=RoundedRectangle|*
%AMROUNDEDRECTD25*
21,1,0.0787,0.0394,0,0,0.0*
21,1,0.0394,0.0787,0,0,0.0*
1,1,0.0394,0.0197,-0.0197*
1,1,0.0394,-0.0197,-0.0197*
1,1,0.0394,-0.0197,0.0197*
1,1,0.0394,0.0197,0.0197*
%
%ADD25ROUNDEDRECTD25*%
%ADD26C,0.0709*%
G04:AMPARAMS|DCode=27|XSize=78.7mil|YSize=78.7mil|CornerRadius=19.7mil|HoleSize=0mil|Usage=FLASHONLY|Rotation=270.000|XOffset=0mil|YOffset=0mil|HoleType=Round|Shape=RoundedRectangle|*
%AMROUNDEDRECTD27*
21,1,0.0787,0.0394,0,0,270.0*
21,1,0.0394,0.0787,0,0,270.0*
1,1,0.0394,-0.0197,-0.0197*
1,1,0.0394,-0.0197,0.0197*
1,1,0.0394,0.0197,0.0197*
1,1,0.0394,0.0197,-0.0197*
%
%ADD27ROUNDEDRECTD27*%
%ADD28C,0.0669*%
G04:AMPARAMS|DCode=29|XSize=63mil|YSize=63mil|CornerRadius=15.7mil|HoleSize=0mil|Usage=FLASHONLY|Rotation=180.000|XOffset=0mil|YOffset=0mil|HoleType=Round|Shape=RoundedRectangle|*
%AMROUNDEDRECTD29*
21,1,0.0630,0.0315,0,0,180.0*
21,1,0.0315,0.0630,0,0,180.0*
1,1,0.0315,-0.0157,0.0157*
1,1,0.0315,0.0157,0.0157*
1,1,0.0315,0.0157,-0.0157*
1,1,0.0315,-0.0157,-0.0157*
%
%ADD29ROUNDEDRECTD29*%
G04:AMPARAMS|DCode=30|XSize=70.9mil|YSize=70.9mil|CornerRadius=17.7mil|HoleSize=0mil|Usage=FLASHONLY|Rotation=0.000|XOffset=0mil|YOffset=0mil|HoleType=Round|Shape=RoundedRectangle|*
%AMROUNDEDRECTD30*
21,1,0.0709,0.0354,0,0,0.0*
21,1,0.0354,0.0709,0,0,0.0*
1,1,0.0354,0.0177,-0.0177*
1,1,0.0354,-0.0177,-0.0177*
1,1,0.0354,-0.0177,0.0177*
1,1,0.0354,0.0177,0.0177*
%
%ADD30ROUNDEDRECTD30*%
%ADD31C,0.0500*%
%ADD32R,0.0433X0.0354*%
%ADD33R,0.0689X0.0492*%
%ADD34R,0.0413X0.0571*%
%ADD35R,0.0768X0.0354*%
%ADD36R,0.0532X0.1043*%
%ADD37R,0.0315X0.0354*%
%ADD38R,0.0650X0.0413*%
%ADD39R,0.0236X0.0866*%
%ADD40R,0.0492X0.0689*%
%ADD41R,0.0846X0.0827*%
%ADD42R,0.0787X0.0610*%
%ADD43O,0.0236X0.0866*%
%ADD44O,0.0217X0.0650*%
%ADD45O,0.0650X0.0217*%
%ADD46C,0.0591*%
%ADD47C,0.0787*%
%ADD48C,0.0118*%
%ADD49C,0.0236*%
%ADD50R,0.0591X0.1575*%
%ADD51R,0.0039X0.1654*%
%ADD52R,0.1378X0.2283*%
%ADD53R,0.0612X0.0513*%
%ADD54R,0.0651X0.0493*%
%ADD55O,0.0986X0.0316*%
%ADD56R,0.0907X0.0926*%
%ADD57R,0.0513X0.0612*%
%ADD58R,0.0690X0.0867*%
%ADD59C,0.0867*%
%ADD60C,0.1261*%
%ADD61C,0.0710*%
%ADD62O,0.0867X0.0710*%
G04:AMPARAMS|DCode=63|XSize=71mil|YSize=86.7mil|CornerRadius=19.7mil|HoleSize=0mil|Usage=FLASHONLY|Rotation=270.000|XOffset=0mil|YOffset=0mil|HoleType=Round|Shape=RoundedRectangle|*
%AMROUNDEDRECTD63*
21,1,0.0710,0.0472,0,0,270.0*
21,1,0.0315,0.0867,0,0,270.0*
1,1,0.0395,-0.0236,-0.0157*
1,1,0.0395,-0.0236,0.0157*
1,1,0.0395,0.0236,0.0157*
1,1,0.0395,0.0236,-0.0157*
%
%ADD63ROUNDEDRECTD63*%
G04:AMPARAMS|DCode=64|XSize=86.7mil|YSize=86.7mil|CornerRadius=23.7mil|HoleSize=0mil|Usage=FLASHONLY|Rotation=0.000|XOffset=0mil|YOffset=0mil|HoleType=Round|Shape=RoundedRectangle|*
%AMROUNDEDRECTD64*
21,1,0.0867,0.0394,0,0,0.0*
21,1,0.0394,0.0867,0,0,0.0*
1,1,0.0474,0.0197,-0.0197*
1,1,0.0474,-0.0197,-0.0197*
1,1,0.0474,-0.0197,0.0197*
1,1,0.0474,0.0197,0.0197*
%
%ADD64ROUNDEDRECTD64*%
%ADD65C,0.0789*%
G04:AMPARAMS|DCode=66|XSize=86.7mil|YSize=86.7mil|CornerRadius=23.7mil|HoleSize=0mil|Usage=FLASHONLY|Rotation=270.000|XOffset=0mil|YOffset=0mil|HoleType=Round|Shape=RoundedRectangle|*
%AMROUNDEDRECTD66*
21,1,0.0867,0.0394,0,0,270.0*
21,1,0.0394,0.0867,0,0,270.0*
1,1,0.0474,-0.0197,-0.0197*
1,1,0.0474,-0.0197,0.0197*
1,1,0.0474,0.0197,0.0197*
1,1,0.0474,0.0197,-0.0197*
%
%ADD66ROUNDEDRECTD66*%
%ADD67C,0.0749*%
G04:AMPARAMS|DCode=68|XSize=71mil|YSize=71mil|CornerRadius=19.7mil|HoleSize=0mil|Usage=FLASHONLY|Rotation=180.000|XOffset=0mil|YOffset=0mil|HoleType=Round|Shape=RoundedRectangle|*
%AMROUNDEDRECTD68*
21,1,0.0710,0.0315,0,0,180.0*
21,1,0.0315,0.0710,0,0,180.0*
1,1,0.0395,-0.0157,0.0157*
1,1,0.0395,0.0157,0.0157*
1,1,0.0395,0.0157,-0.0157*
1,1,0.0395,-0.0157,-0.0157*
%
%ADD68ROUNDEDRECTD68*%
G04:AMPARAMS|DCode=69|XSize=78.9mil|YSize=78.9mil|CornerRadius=21.7mil|HoleSize=0mil|Usage=FLASHONLY|Rotation=0.000|XOffset=0mil|YOffset=0mil|HoleType=Round|Shape=RoundedRectangle|*
%AMROUNDEDRECTD69*
21,1,0.0789,0.0354,0,0,0.0*
21,1,0.0354,0.0789,0,0,0.0*
1,1,0.0434,0.0177,-0.0177*
1,1,0.0434,-0.0177,-0.0177*
1,1,0.0434,-0.0177,0.0177*
1,1,0.0434,0.0177,0.0177*
%
%ADD69ROUNDEDRECTD69*%
%ADD70C,0.0580*%
%ADD71R,0.0513X0.0434*%
%ADD72R,0.0769X0.0572*%
%ADD73R,0.0493X0.0651*%
%ADD74R,0.0848X0.0434*%
%ADD75R,0.0612X0.1123*%
%ADD76R,0.0395X0.0434*%
%ADD77R,0.0730X0.0493*%
%ADD78R,0.0316X0.0946*%
%ADD79R,0.0572X0.0769*%
%ADD80R,0.0926X0.0907*%
%ADD81R,0.0867X0.0690*%
%ADD82O,0.0316X0.0946*%
%ADD83O,0.0297X0.0730*%
%ADD84O,0.0730X0.0297*%
D53*
X34016Y23425D02*
D03*
Y22638D02*
D03*
X34803Y25000D02*
D03*
Y24213D02*
D03*
D54*
X24134Y19409D02*
D03*
Y20197D02*
D03*
X25630Y19409D02*
D03*
Y20197D02*
D03*
X27638Y19409D02*
D03*
Y20197D02*
D03*
X34803Y23425D02*
D03*
Y22638D02*
D03*
X38228Y24213D02*
D03*
Y23425D02*
D03*
D57*
X16811Y22480D02*
D03*
X16024D02*
D03*
X17598Y24055D02*
D03*
X18386D02*
D03*
X19764D02*
D03*
X20551D02*
D03*
X21969D02*
D03*
X21181D02*
D03*
X21969Y22165D02*
D03*
X22756D02*
D03*
X26811Y14094D02*
D03*
X27598D02*
D03*
X31417Y15945D02*
D03*
X32205D02*
D03*
X29803Y16811D02*
D03*
X30591D02*
D03*
X29803Y18543D02*
D03*
X30591D02*
D03*
X31535Y19528D02*
D03*
X32323D02*
D03*
D59*
X32677Y13693D02*
D03*
X38677D02*
D03*
X39677Y16693D02*
D03*
X36677D02*
D03*
X32677D02*
D03*
X33110Y18063D02*
D03*
X39110D02*
D03*
X40110Y21063D02*
D03*
X37110D02*
D03*
X33110D02*
D03*
X30685Y13984D02*
D03*
X29685D02*
D03*
X30685Y14984D02*
D03*
Y15984D02*
D03*
Y17677D02*
D03*
X29394Y20394D02*
D03*
X38228Y22819D02*
D03*
X16260Y23488D02*
D03*
D60*
X43701Y14488D02*
D03*
Y16488D02*
D03*
Y18488D02*
D03*
Y20488D02*
D03*
Y22488D02*
D03*
Y24488D02*
D03*
X13780Y14528D02*
D03*
Y16528D02*
D03*
Y18528D02*
D03*
Y20528D02*
D03*
Y22528D02*
D03*
Y24528D02*
D03*
D61*
X21850Y20622D02*
D03*
Y19622D02*
D03*
Y18622D02*
D03*
Y17622D02*
D03*
Y16622D02*
D03*
Y15622D02*
D03*
Y14622D02*
D03*
Y13622D02*
D03*
X29236Y24931D02*
D03*
X27236D02*
D03*
X26236D02*
D03*
X25236D02*
D03*
D62*
X29685Y14984D02*
D03*
D63*
Y15984D02*
D03*
D64*
Y17677D02*
D03*
X31394Y20394D02*
D03*
D65*
X33110Y24976D02*
D03*
Y22976D02*
D03*
X24890Y19409D02*
D03*
X26890D02*
D03*
X26878Y21535D02*
D03*
D66*
X38228Y24819D02*
D03*
X16260Y24488D02*
D03*
D67*
X41299Y25071D02*
D03*
X40799Y23071D02*
D03*
X18181Y20000D02*
D03*
X16181Y20500D02*
D03*
D68*
X30236Y24931D02*
D03*
D69*
X25878Y21535D02*
D03*
D70*
X25354Y13543D02*
D03*
X26142Y16575D02*
D03*
X24803D02*
D03*
X28543Y14528D02*
D03*
X17717Y13780D02*
D03*
Y15787D02*
D03*
X20472Y20276D02*
D03*
X19843D02*
D03*
X19213D02*
D03*
X17717Y17795D02*
D03*
X22874Y16575D02*
D03*
X28976Y18465D02*
D03*
X28504Y17992D02*
D03*
X28110Y17441D02*
D03*
X36693Y23661D02*
D03*
X36220Y25472D02*
D03*
X34803Y22126D02*
D03*
X18898Y25000D02*
D03*
X22835Y20984D02*
D03*
X23228Y21535D02*
D03*
X23622Y22047D02*
D03*
D71*
X17530Y22461D02*
D03*
Y23287D02*
D03*
X18455Y22874D02*
D03*
D72*
X15236Y23593D02*
D03*
Y22470D02*
D03*
D73*
X22756Y23268D02*
D03*
X21969D02*
D03*
X26142Y14094D02*
D03*
X25354D02*
D03*
X30748Y20394D02*
D03*
X29961D02*
D03*
X25984Y23819D02*
D03*
X26772D02*
D03*
D74*
X17608Y14278D02*
D03*
Y14778D02*
D03*
X20030Y14278D02*
D03*
Y14778D02*
D03*
X17608Y16285D02*
D03*
Y16785D02*
D03*
X20030Y16285D02*
D03*
Y16785D02*
D03*
X17608Y18293D02*
D03*
Y18793D02*
D03*
X20030Y18293D02*
D03*
Y18793D02*
D03*
D75*
X14921Y14528D02*
D03*
X16732D02*
D03*
X14921Y16535D02*
D03*
X16732D02*
D03*
X14921Y18543D02*
D03*
X16732D02*
D03*
D76*
X31811Y14488D02*
D03*
X32185Y15276D02*
D03*
X31437D02*
D03*
X31929Y18071D02*
D03*
X32303Y18858D02*
D03*
X31555D02*
D03*
D77*
X33386Y15876D02*
D03*
Y14518D02*
D03*
X33110Y20207D02*
D03*
Y18848D02*
D03*
D78*
X35707Y24774D02*
D03*
X36207D02*
D03*
X36707D02*
D03*
X37207D02*
D03*
X35707Y22864D02*
D03*
X36207D02*
D03*
X36707D02*
D03*
X37207D02*
D03*
D79*
X40207Y25079D02*
D03*
X39085D02*
D03*
X25817Y22717D02*
D03*
X26939D02*
D03*
D80*
X39567Y24085D02*
D03*
Y22608D02*
D03*
D81*
X41111Y24055D02*
D03*
X42511D02*
D03*
D82*
X21144Y21260D02*
D03*
X20644D02*
D03*
X20144D02*
D03*
X19644D02*
D03*
X21144Y23150D02*
D03*
X20644D02*
D03*
X20144D02*
D03*
X19644D02*
D03*
D83*
X24567Y18268D02*
D03*
X24882D02*
D03*
X25197D02*
D03*
X25512D02*
D03*
X25827D02*
D03*
X26142D02*
D03*
X26457D02*
D03*
X26772D02*
D03*
Y14961D02*
D03*
X26457D02*
D03*
X26142D02*
D03*
X25827D02*
D03*
X25512D02*
D03*
X25197D02*
D03*
X24882D02*
D03*
X24567D02*
D03*
D84*
X27323Y17717D02*
D03*
Y17402D02*
D03*
Y17087D02*
D03*
Y16772D02*
D03*
Y16457D02*
D03*
Y16142D02*
D03*
Y15827D02*
D03*
Y15512D02*
D03*
X24016D02*
D03*
Y15827D02*
D03*
Y16142D02*
D03*
Y16457D02*
D03*
Y16772D02*
D03*
Y17087D02*
D03*
Y17402D02*
D03*
Y17717D02*
D03*
M02*
