%FSLAX24Y24*%
%MOIN*%
G70*
G01*
G75*
G04 Layer_Physical_Order=1*
G04 Layer_Color=255*
%ADD10R,0.0532X0.0433*%
%ADD11R,0.0571X0.0413*%
%ADD12O,0.0906X0.0236*%
%ADD13R,0.0827X0.0846*%
%ADD14R,0.0433X0.0532*%
%ADD15R,0.0610X0.0787*%
%ADD16C,0.0295*%
%ADD17C,0.0197*%
%ADD18C,0.0394*%
%ADD19R,0.0984X0.0906*%
%ADD20C,0.0787*%
%ADD21C,0.1181*%
%ADD22C,0.0630*%
%ADD23O,0.0787X0.0630*%
G04:AMPARAMS|DCode=24|XSize=63mil|YSize=78.7mil|CornerRadius=15.7mil|HoleSize=0mil|Usage=FLASHONLY|Rotation=270.000|XOffset=0mil|YOffset=0mil|HoleType=Round|Shape=RoundedRectangle|*
%AMROUNDEDRECTD24*
21,1,0.0630,0.0472,0,0,270.0*
21,1,0.0315,0.0787,0,0,270.0*
1,1,0.0315,-0.0236,-0.0157*
1,1,0.0315,-0.0236,0.0157*
1,1,0.0315,0.0236,0.0157*
1,1,0.0315,0.0236,-0.0157*
%
%ADD24ROUNDEDRECTD24*%
G04:AMPARAMS|DCode=25|XSize=78.7mil|YSize=78.7mil|CornerRadius=19.7mil|HoleSize=0mil|Usage=FLASHONLY|Rotation=0.000|XOffset=0mil|YOffset=0mil|HoleType=Round|Shape=RoundedRectangle|*
%AMROUNDEDRECTD25*
21,1,0.0787,0.0394,0,0,0.0*
21,1,0.0394,0.0787,0,0,0.0*
1,1,0.0394,0.0197,-0.0197*
1,1,0.0394,-0.0197,-0.0197*
1,1,0.0394,-0.0197,0.0197*
1,1,0.0394,0.0197,0.0197*
%
%ADD25ROUNDEDRECTD25*%
%ADD26C,0.0709*%
G04:AMPARAMS|DCode=27|XSize=78.7mil|YSize=78.7mil|CornerRadius=19.7mil|HoleSize=0mil|Usage=FLASHONLY|Rotation=270.000|XOffset=0mil|YOffset=0mil|HoleType=Round|Shape=RoundedRectangle|*
%AMROUNDEDRECTD27*
21,1,0.0787,0.0394,0,0,270.0*
21,1,0.0394,0.0787,0,0,270.0*
1,1,0.0394,-0.0197,-0.0197*
1,1,0.0394,-0.0197,0.0197*
1,1,0.0394,0.0197,0.0197*
1,1,0.0394,0.0197,-0.0197*
%
%ADD27ROUNDEDRECTD27*%
%ADD28C,0.0669*%
G04:AMPARAMS|DCode=29|XSize=63mil|YSize=63mil|CornerRadius=15.7mil|HoleSize=0mil|Usage=FLASHONLY|Rotation=180.000|XOffset=0mil|YOffset=0mil|HoleType=Round|Shape=RoundedRectangle|*
%AMROUNDEDRECTD29*
21,1,0.0630,0.0315,0,0,180.0*
21,1,0.0315,0.0630,0,0,180.0*
1,1,0.0315,-0.0157,0.0157*
1,1,0.0315,0.0157,0.0157*
1,1,0.0315,0.0157,-0.0157*
1,1,0.0315,-0.0157,-0.0157*
%
%ADD29ROUNDEDRECTD29*%
G04:AMPARAMS|DCode=30|XSize=70.9mil|YSize=70.9mil|CornerRadius=17.7mil|HoleSize=0mil|Usage=FLASHONLY|Rotation=0.000|XOffset=0mil|YOffset=0mil|HoleType=Round|Shape=RoundedRectangle|*
%AMROUNDEDRECTD30*
21,1,0.0709,0.0354,0,0,0.0*
21,1,0.0354,0.0709,0,0,0.0*
1,1,0.0354,0.0177,-0.0177*
1,1,0.0354,-0.0177,-0.0177*
1,1,0.0354,-0.0177,0.0177*
1,1,0.0354,0.0177,0.0177*
%
%ADD30ROUNDEDRECTD30*%
%ADD31C,0.0500*%
G36*
X31110Y21024D02*
D01*
X31110Y21024D01*
X31110Y21024D01*
Y20876D01*
X30970Y20818D01*
X30876Y20591D01*
Y20197D01*
X30970Y19970D01*
X31126Y19905D01*
Y18311D01*
X30962Y18202D01*
X30783Y18276D01*
Y17677D01*
X30587D01*
Y18276D01*
X30233Y18129D01*
X30221Y18101D01*
X30109D01*
X30109Y18101D01*
Y18101D01*
X29882Y18195D01*
X29488D01*
Y18465D01*
X29528Y18504D01*
X29339D01*
X29244Y18732D01*
X28976Y18843D01*
X28709Y18732D01*
X28686Y18679D01*
X27874D01*
X27722Y18616D01*
X27610Y18504D01*
X23228D01*
Y20086D01*
X24213D01*
X24213Y20086D01*
X24402Y20165D01*
X24717Y20480D01*
X24717Y20480D01*
X24740Y20535D01*
X24796Y20669D01*
X24796Y20669D01*
Y22645D01*
X24835Y22685D01*
X31110D01*
Y21024D01*
D02*
G37*
G36*
X27559Y16614D02*
Y14567D01*
X27559D01*
X27756Y14370D01*
X27817D01*
Y14173D01*
X27880Y14021D01*
X28069Y13832D01*
X28220Y13769D01*
X29240D01*
X29307Y13606D01*
X29685Y13450D01*
X30063Y13606D01*
X30063D01*
D01*
X30233Y13532D01*
X30233Y13532D01*
X30233Y13532D01*
X30596Y13382D01*
X30557Y13189D01*
X25868D01*
X25759Y13353D01*
X25797Y13445D01*
X24911D01*
X24950Y13353D01*
X24840Y13189D01*
X22402D01*
X22293Y13353D01*
X22364Y13524D01*
X21850D01*
Y13720D01*
X22364D01*
X22283Y13914D01*
Y14583D01*
X22300Y14622D01*
X22283Y14661D01*
Y14911D01*
X22392D01*
Y14911D01*
X22776D01*
Y15315D01*
X22874D01*
Y15413D01*
X23356D01*
Y15561D01*
X23425Y15630D01*
Y16535D01*
X23622Y16732D01*
X24214D01*
X24319Y16575D01*
X24319Y16575D01*
X24319D01*
X24461Y16233D01*
X24705Y16132D01*
Y16575D01*
X24902D01*
Y16132D01*
X25145Y16233D01*
X25287Y16575D01*
X25287Y16575D01*
X25287Y16575D01*
X25374Y16705D01*
X25571D01*
X25658Y16575D01*
X25658Y16575D01*
X25658D01*
X25800Y16233D01*
X26043Y16132D01*
Y16575D01*
X26240D01*
Y16132D01*
X26484Y16233D01*
X26625Y16575D01*
X26625Y16575D01*
X26625Y16575D01*
X26731Y16732D01*
X27441D01*
X27559Y16614D01*
D02*
G37*
G36*
X34927Y25438D02*
X34789Y25298D01*
X33469D01*
X33458Y25324D01*
X33110Y25468D01*
X32763Y25324D01*
X32618Y24976D01*
X32763Y24629D01*
X33110Y24485D01*
X33458Y24629D01*
X33469Y24655D01*
X34937D01*
X34945Y23999D01*
X34931Y23985D01*
X34931D01*
Y23493D01*
X35433D01*
Y23394D01*
X35531D01*
Y22804D01*
X35935D01*
Y23414D01*
X36117Y23489D01*
X36417Y23189D01*
X36929D01*
X36969Y23228D01*
Y23228D01*
X37165Y23425D01*
Y24016D01*
X37205D01*
X37402Y24213D01*
X38937D01*
X39331Y23819D01*
Y22874D01*
X39342Y22862D01*
X39331Y22835D01*
X39331D01*
X39331Y22835D01*
X38908Y22412D01*
X38744Y22521D01*
X38827Y22720D01*
X38327D01*
Y22220D01*
X38526Y22303D01*
X38635Y22139D01*
X38150Y21654D01*
X35268D01*
X35159Y21817D01*
X35246Y22028D01*
X34360D01*
X34461Y21784D01*
X34520Y21760D01*
X34559Y21566D01*
X34449Y21457D01*
Y16102D01*
Y13583D01*
X34055Y13189D01*
X33180D01*
X33071Y13353D01*
X33212Y13693D01*
X33055Y14071D01*
X32677Y14227D01*
X32299Y14071D01*
X32143Y13693D01*
X32284Y13353D01*
X32174Y13189D01*
X30813D01*
X30774Y13382D01*
X31137Y13532D01*
X31283Y13886D01*
X30685D01*
Y14083D01*
X31283D01*
X31216Y14246D01*
X31299Y14370D01*
X31299D01*
Y16299D01*
Y16339D01*
X31496Y16535D01*
X32208D01*
X32299Y16315D01*
X32677Y16159D01*
X33008Y16295D01*
D01*
X33055Y16315D01*
X33212Y16693D01*
X33055Y17071D01*
X32677Y17227D01*
X32677Y17227D01*
Y17227D01*
X32552Y17531D01*
Y17610D01*
X32732Y17685D01*
X33110Y17529D01*
X33488Y17685D01*
X33645Y18063D01*
X33488Y18441D01*
X33110Y18597D01*
X32732Y18441D01*
X32552Y18516D01*
Y20610D01*
X32732Y20685D01*
D01*
D01*
X33110Y20529D01*
X33488Y20685D01*
X33645Y21063D01*
X33488Y21441D01*
X33110Y21597D01*
X32732Y21441D01*
X32687Y21331D01*
X31693D01*
Y22638D01*
Y22708D01*
X32729D01*
X32763Y22629D01*
X33110Y22485D01*
X33458Y22629D01*
X33602Y22976D01*
X33458Y23324D01*
X33395Y23350D01*
X33110Y23468D01*
X32763Y23324D01*
X32729Y23244D01*
X31402D01*
X31402Y23244D01*
X31345Y23221D01*
X30504D01*
Y24541D01*
X30591Y24577D01*
X30672Y24774D01*
Y25089D01*
X30591Y25286D01*
X30394Y25367D01*
X30079D01*
X29882Y25286D01*
X29861Y25236D01*
X29664D01*
X29628Y25323D01*
X29335Y25444D01*
Y24931D01*
Y24418D01*
X29628Y24539D01*
X29664Y24627D01*
X29861D01*
X29882Y24577D01*
X29968Y24541D01*
Y23221D01*
X24724D01*
X24724Y23221D01*
X24535Y23142D01*
X24338Y22945D01*
X24260Y22756D01*
X24260Y22756D01*
X24260D01*
X24181Y22717D01*
X24005D01*
X23933Y22788D01*
Y22795D01*
X22913Y23858D01*
Y24063D01*
X23102D01*
Y24677D01*
D01*
Y24677D01*
X23179Y24754D01*
X23199D01*
Y25059D01*
X22717D01*
Y25256D01*
X23199D01*
Y25362D01*
X24568D01*
X24726Y25197D01*
Y24803D01*
Y24803D01*
X24915Y24606D01*
X24936D01*
X25236Y24482D01*
X25554Y24614D01*
X25638Y24816D01*
X25835D01*
X25919Y24614D01*
X26236Y24482D01*
X26554Y24614D01*
X26638Y24816D01*
X26835D01*
X26919Y24614D01*
X27236Y24482D01*
X27554Y24614D01*
X27685Y24931D01*
X27554Y25249D01*
X27236Y25380D01*
X26919Y25249D01*
X26835Y25046D01*
X26638D01*
X26554Y25249D01*
X26236Y25380D01*
X25919Y25249D01*
X25835Y25046D01*
X25638D01*
X25554Y25249D01*
X25504Y25269D01*
Y25512D01*
X25504Y25512D01*
X25486Y25556D01*
X25519Y25591D01*
Y25630D01*
X25670Y25787D01*
X34923D01*
X34927Y25438D01*
D02*
G37*
%LPC*%
G36*
X29295Y20295D02*
X28795D01*
X28942Y19942D01*
X29295Y19795D01*
Y20295D01*
D02*
G37*
G36*
Y20992D02*
X28942Y20846D01*
X28795Y20492D01*
X29295D01*
Y20992D01*
D02*
G37*
G36*
X29992Y20295D02*
X29492D01*
Y19795D01*
X29846Y19942D01*
X29992Y20295D01*
D02*
G37*
G36*
X26890Y19901D02*
X26542Y19757D01*
X26398Y19409D01*
X26542Y19062D01*
X26890Y18918D01*
X27237Y19062D01*
X27382Y19409D01*
X27237Y19757D01*
X26890Y19901D01*
D02*
G37*
G36*
X25453Y13986D02*
Y13642D01*
X25797D01*
X25696Y13885D01*
X25453Y13986D01*
D02*
G37*
G36*
X25256D02*
X25012Y13885D01*
X24911Y13642D01*
X25256D01*
Y13986D01*
D02*
G37*
G36*
X24890Y19901D02*
X24542Y19757D01*
X24398Y19409D01*
X24542Y19062D01*
X24890Y18918D01*
X25237Y19062D01*
X25382Y19409D01*
X25237Y19757D01*
X24890Y19901D01*
D02*
G37*
G36*
X23356Y15217D02*
X22972D01*
Y14911D01*
X23356D01*
Y15217D01*
D02*
G37*
G36*
X38130Y23417D02*
X37776Y23271D01*
X37630Y22917D01*
X38130D01*
Y23417D01*
D02*
G37*
G36*
X35335Y23296D02*
X34931D01*
Y22804D01*
Y22804D01*
X35335D01*
Y23296D01*
D02*
G37*
G36*
X38327Y23417D02*
Y22917D01*
X38827D01*
X38680Y23271D01*
X38327Y23417D01*
D02*
G37*
G36*
X29138Y25444D02*
X28844Y25323D01*
X28723Y25030D01*
X29138D01*
Y25444D01*
D02*
G37*
G36*
Y24833D02*
X28723D01*
X28844Y24539D01*
X29138Y24418D01*
Y24833D01*
D02*
G37*
G36*
X26878Y22027D02*
X26530Y21883D01*
X26506Y21824D01*
X26309D01*
X26267Y21925D01*
X26055Y22013D01*
X25701D01*
X25489Y21925D01*
X25401Y21713D01*
Y21358D01*
X25489Y21146D01*
X25701Y21058D01*
X26055D01*
X26267Y21146D01*
X26309Y21247D01*
X26506D01*
X26530Y21188D01*
X26878Y21044D01*
X27226Y21188D01*
X27370Y21535D01*
X27226Y21883D01*
X26878Y22027D01*
D02*
G37*
G36*
X29492Y20992D02*
Y20492D01*
X29992D01*
X29846Y20846D01*
X29492Y20992D01*
D02*
G37*
G36*
X38130Y22720D02*
X37630D01*
X37776Y22367D01*
X38130Y22220D01*
Y22720D01*
D02*
G37*
G36*
X34902Y22569D02*
Y22224D01*
X35246D01*
X35145Y22468D01*
X34902Y22569D01*
D02*
G37*
G36*
X34705D02*
X34461Y22468D01*
X34360Y22224D01*
X34705D01*
Y22569D01*
D02*
G37*
%LPD*%
D10*
X19449Y14173D02*
D03*
Y14961D02*
D03*
X19449Y16181D02*
D03*
Y16968D02*
D03*
X19449Y18189D02*
D03*
Y18976D02*
D03*
D11*
X18661Y16181D02*
D03*
Y16968D02*
D03*
X22874Y16102D02*
D03*
Y15315D02*
D03*
X18661Y14173D02*
D03*
Y14961D02*
D03*
Y18189D02*
D03*
Y18976D02*
D03*
X16457Y22362D02*
D03*
Y21575D02*
D03*
X22717Y24370D02*
D03*
Y25157D02*
D03*
D12*
X17805Y25018D02*
D03*
Y24518D02*
D03*
Y24018D02*
D03*
Y23518D02*
D03*
Y23018D02*
D03*
Y22518D02*
D03*
Y22018D02*
D03*
Y21518D02*
D03*
X21407Y25018D02*
D03*
Y24518D02*
D03*
Y24018D02*
D03*
Y23518D02*
D03*
Y23018D02*
D03*
Y22518D02*
D03*
Y22018D02*
D03*
Y21518D02*
D03*
D13*
X16270Y14567D02*
D03*
X17746D02*
D03*
X16270Y16575D02*
D03*
X17746D02*
D03*
X16270Y18583D02*
D03*
X17746D02*
D03*
D14*
X20197Y14606D02*
D03*
X20984D02*
D03*
X20197Y16614D02*
D03*
X20984D02*
D03*
X20197Y15630D02*
D03*
X20984D02*
D03*
D15*
X35433Y24794D02*
D03*
Y23394D02*
D03*
D16*
X30236Y22953D02*
X31378D01*
X24724D02*
X30236D01*
X24528Y20669D02*
Y22756D01*
X24724Y22953D01*
X32283Y21063D02*
X33110D01*
X31417D02*
X32283D01*
Y17087D02*
X32677Y16693D01*
X32283Y17087D02*
Y21063D01*
X31378Y21024D02*
Y22953D01*
Y20409D02*
Y21024D01*
X31417Y21063D01*
X31378Y22953D02*
X31402Y22976D01*
X33110D01*
X31378Y20409D02*
X31394Y20394D01*
X22874Y13343D02*
X30548D01*
X22130D02*
X22874D01*
Y15315D01*
X21850Y13622D02*
X22130Y13343D01*
X30548D02*
X30685Y13480D01*
Y13984D01*
X30709Y16772D02*
X31378D01*
X28701D02*
X30709D01*
X30685Y16748D02*
X30709Y16772D01*
X30685Y15984D02*
Y16748D01*
X28543Y14528D02*
X28583Y14567D01*
Y16654D01*
X28701Y16772D01*
X31378D02*
X31394Y16787D01*
Y20394D01*
X30236Y22953D02*
Y24931D01*
X24213Y20354D02*
X24528Y20669D01*
X22118Y20354D02*
X24213D01*
X21850Y20622D02*
X22118Y20354D01*
X20433Y13622D02*
X21850D01*
X20197Y13858D02*
X20433Y13622D01*
X20197Y13858D02*
Y14606D01*
Y15630D01*
Y16614D01*
X25236Y24931D02*
Y25512D01*
X25118Y25630D02*
X25236Y25512D01*
X15157Y25354D02*
X15433Y25630D01*
X15157Y21693D02*
Y25354D01*
Y21693D02*
X15276Y21575D01*
X16457D01*
X15433Y25630D02*
X17008D01*
X25118D01*
D17*
X21850Y19622D02*
X22701D01*
X22835Y19488D01*
Y18268D02*
Y19488D01*
Y18268D02*
X22913Y18189D01*
X27598D01*
X27874Y18465D01*
X28976D01*
X21850Y17622D02*
X22181D01*
X22362Y17441D01*
X28110D01*
X21850Y18622D02*
X22362D01*
X22441Y18543D01*
Y17913D02*
Y18543D01*
Y17913D02*
X22559Y17795D01*
X27756D01*
X27953Y17992D01*
X28504D01*
X22874Y16102D02*
Y16575D01*
X28031Y14173D02*
X28220Y13984D01*
X29685D01*
X28031Y14173D02*
Y16811D01*
X27756Y17087D02*
X28031Y16811D01*
X23031Y17087D02*
X27756D01*
X22874Y16929D02*
X23031Y17087D01*
X22874Y16575D02*
Y16929D01*
X29638Y13937D02*
X29685Y13984D01*
X29213Y24907D02*
X29236Y24931D01*
X29213Y24055D02*
Y24907D01*
X29016Y23858D02*
X29213Y24055D01*
X23189Y23858D02*
X29016D01*
X21835Y14606D02*
X21850Y14622D01*
X20984Y14606D02*
X21835D01*
X21843Y15630D02*
X21850Y15622D01*
X20984Y15630D02*
X21843D01*
Y16614D02*
X21850Y16622D01*
X20984Y16614D02*
X21843D01*
X18268Y17795D02*
X18661Y18189D01*
X17717Y17795D02*
X18268D01*
X18268Y15787D02*
X18661Y16181D01*
X17717Y15787D02*
X18268D01*
Y13780D02*
X18661Y14173D01*
X17717Y13780D02*
X18268D01*
X18661Y14173D02*
X19449D01*
X18661Y16181D02*
X19449D01*
X18661Y18189D02*
X19449D01*
X17746Y18583D02*
X18140Y18976D01*
X18661D01*
X19449D01*
X17746Y16575D02*
X18140Y16968D01*
X18661D01*
X19449D01*
X17746Y14567D02*
X18140Y14961D01*
X18661D01*
X19449D01*
X17136Y24518D02*
X17805D01*
X17008Y24646D02*
X17136Y24518D01*
X17008Y24646D02*
Y25630D01*
X17805Y25018D02*
X18880D01*
X18898Y25000D01*
Y24094D02*
Y25000D01*
X18819Y24016D02*
X18898Y24094D01*
X17807Y24016D02*
X18819D01*
X17805Y24018D02*
X17807Y24016D01*
X17089Y24018D02*
X17805D01*
X17008Y23937D02*
X17089Y24018D01*
X17008Y22087D02*
X17087Y22008D01*
X17795D01*
X17805Y22018D01*
X16457Y22362D02*
X17008D01*
Y22087D02*
Y22362D01*
Y23937D01*
X16514Y21518D02*
X17805D01*
X16457Y21575D02*
X16514Y21518D01*
X17805Y22518D02*
X18467D01*
X18661Y22323D01*
Y20827D02*
Y22323D01*
Y20827D02*
X19213Y20276D01*
X17805Y23018D02*
X18793D01*
X18958Y22853D01*
Y21164D02*
Y22853D01*
Y21164D02*
X19843Y20280D01*
Y20276D02*
Y20280D01*
X17805Y23518D02*
X19041D01*
X19255Y23304D01*
Y21497D02*
Y23304D01*
Y21497D02*
X20472Y20280D01*
Y20276D02*
Y20280D01*
X21407Y21518D02*
X21789D01*
X21850Y21457D01*
Y20622D02*
Y21457D01*
X20778Y22018D02*
X21407D01*
X20709Y22087D02*
X20778Y22018D01*
X20709Y22087D02*
Y23937D01*
X20789Y24018D01*
X21407D01*
X20490Y21518D02*
X21407D01*
X20354Y21654D02*
X20490Y21518D01*
X20354Y21654D02*
Y24449D01*
X20423Y24518D01*
X21407D01*
X22215D01*
X21407Y24018D02*
X22163D01*
X21407Y22518D02*
X22246D01*
X23228Y21535D01*
X21407Y23018D02*
X22652D01*
X23622Y22047D01*
X21407Y23518D02*
X22900D01*
X24070Y22347D01*
Y21743D02*
Y22347D01*
X23311Y20984D02*
X24070Y21743D01*
X22835Y20984D02*
X23311D01*
X22163Y24018D02*
X22323Y23858D01*
X23189D01*
X23268Y23937D01*
Y25118D01*
X23228Y25157D02*
X23268Y25118D01*
X22717Y25157D02*
X23228D01*
X21407Y25018D02*
X22183D01*
X22215Y24518D02*
X22362Y24370D01*
X22717D01*
X22183Y25018D02*
X22323Y25157D01*
X22717D01*
X21850Y18622D02*
X21890Y18583D01*
X21850Y19622D02*
X21866Y19606D01*
D18*
X30685Y13984D02*
X30732Y13937D01*
X31339D01*
X33858Y16457D01*
Y21850D01*
X34134Y22126D01*
X34803D01*
X13780Y20528D02*
X13807Y20500D01*
X16181D01*
X17402Y20000D02*
X18181D01*
X17087Y19685D02*
X17402Y20000D01*
X17087Y18543D02*
Y19685D01*
X13780Y14528D02*
X16230D01*
X13780Y16528D02*
X16222D01*
X13780Y18528D02*
X16215D01*
X17087Y16575D02*
Y18543D01*
X17126Y18583D01*
X17746D01*
X17087Y14685D02*
Y16575D01*
X17746D01*
X17087Y14685D02*
X17205Y14567D01*
X17746D01*
X16215Y18528D02*
X16270Y18583D01*
X16222Y16528D02*
X16270Y16575D01*
X16230Y14528D02*
X16270Y14567D01*
X38228Y24819D02*
Y25354D01*
X36693Y23661D02*
Y24567D01*
X36496Y24764D02*
X36693Y24567D01*
X35464Y24764D02*
X36496D01*
X35433Y24794D02*
X35464Y24764D01*
X36220Y25472D02*
X38110D01*
X38228Y25354D01*
X33110Y24976D02*
X35251D01*
X35433Y24794D01*
Y22244D02*
Y23394D01*
X35315Y22126D02*
X35433Y22244D01*
X34803Y22126D02*
X35315D01*
D19*
X30925Y13642D02*
D03*
D20*
X32677Y13693D02*
D03*
X38677D02*
D03*
X39677Y16693D02*
D03*
X36677D02*
D03*
X32677D02*
D03*
X33110Y18063D02*
D03*
X39110D02*
D03*
X40110Y21063D02*
D03*
X37110D02*
D03*
X33110D02*
D03*
X30685Y13984D02*
D03*
X29685D02*
D03*
X30685Y14984D02*
D03*
Y15984D02*
D03*
Y17677D02*
D03*
X29394Y20394D02*
D03*
X38228Y22819D02*
D03*
X16260Y23488D02*
D03*
D21*
X43701Y14488D02*
D03*
Y16488D02*
D03*
Y18488D02*
D03*
Y20488D02*
D03*
Y22488D02*
D03*
Y24488D02*
D03*
X13780Y14528D02*
D03*
Y16528D02*
D03*
Y18528D02*
D03*
Y20528D02*
D03*
Y22528D02*
D03*
Y24528D02*
D03*
D22*
X21850Y20622D02*
D03*
Y19622D02*
D03*
Y18622D02*
D03*
Y17622D02*
D03*
Y16622D02*
D03*
Y15622D02*
D03*
Y14622D02*
D03*
Y13622D02*
D03*
X29236Y24931D02*
D03*
X27236D02*
D03*
X26236D02*
D03*
X25236D02*
D03*
D23*
X29685Y14984D02*
D03*
D24*
Y15984D02*
D03*
D25*
Y17677D02*
D03*
X31394Y20394D02*
D03*
D26*
X33110Y24976D02*
D03*
Y22976D02*
D03*
X24890Y19409D02*
D03*
X26890D02*
D03*
X26878Y21535D02*
D03*
D27*
X38228Y24819D02*
D03*
X16260Y24488D02*
D03*
D28*
X41299Y25071D02*
D03*
X40799Y23071D02*
D03*
X18181Y20000D02*
D03*
X16181Y20500D02*
D03*
D29*
X30236Y24931D02*
D03*
D30*
X25878Y21535D02*
D03*
D31*
X25354Y13543D02*
D03*
X26142Y16575D02*
D03*
X24803D02*
D03*
X28543Y14528D02*
D03*
X17717Y13780D02*
D03*
Y15787D02*
D03*
X20472Y20276D02*
D03*
X19843D02*
D03*
X19213D02*
D03*
X17717Y17795D02*
D03*
X22874Y16575D02*
D03*
X28976Y18465D02*
D03*
X28504Y17992D02*
D03*
X28110Y17441D02*
D03*
X36693Y23661D02*
D03*
X36220Y25472D02*
D03*
X34803Y22126D02*
D03*
X18898Y25000D02*
D03*
X22835Y20984D02*
D03*
X23228Y21535D02*
D03*
X23622Y22047D02*
D03*
M02*
